<svg xmlns="http://www.w3.org/2000/svg" xmlns:xlink="http://www.w3.org/1999/xlink" xmlns:lucid="lucid" width="1474" height="860"><g transform="translate(0 0)" lucid:page-tab-id="0_0"><path d="M0 0h1473.77v1174.67H0z" fill="#fff"/><path d="M50.33 202.3c0-4.4 3.58-8 8-8H453.6c4.43 0 8 3.6 8 8v208.57c0 4.42-3.57 8-8 8H58.34c-4.42 0-8-3.58-8-8z" stroke="#ccc" fill="#fff"/><path d="M484.93 387.9c0-4.43 3.58-8 8-8h796.16c4.4 0 8 3.57 8 8v245.33c0 4.42-3.6 8-8 8H492.92c-4.42 0-8-3.58-8-8z" stroke="#ccc" fill-opacity="0"/><path d="M987.2 404.42c-8.95 0-16.2 7.24-16.2 16.18v48.56c0 8.94 7.25 16.2 16.2 16.2h129.48c8.94 0 16.2-7.26 16.2-16.2V420.6c0-8.94-7.26-16.18-16.2-16.18z" stroke="#000" stroke-opacity="0" fill="#75b2ff"/><use xlink:href="#a" transform="matrix(1,0,0,1,979.0041276387917,412.4165383093872) translate(40.481481481481474 36.05555555555556)"/><path d="M709.36 725c-8.94 0-16.2 7.24-16.2 16.18v48.56c0 8.94 7.26 16.18 16.2 16.18h129.5c8.93 0 16.18-7.24 16.18-16.18v-48.56c0-8.94-7.25-16.2-16.2-16.2z" stroke="#000" stroke-opacity="0" fill="#d7e9ff"/><use xlink:href="#b" transform="matrix(1,0,0,1,701.1700308182626,732.9907415522096) translate(2.555555555555543 36.05555555555556)"/><use xlink:href="#c" transform="matrix(1,0,0,1,701.1700308182626,732.9907415522096) translate(94.20987654320987 36.05555555555556)"/><path d="M847.73 536.76c-8.94 0-16.18 7.25-16.18 16.2v48.55c0 8.95 7.24 16.2 16.18 16.2h129.5c8.94 0 16.18-7.25 16.18-16.2v-48.55c0-8.94-7.23-16.2-16.17-16.2z" stroke="#000" stroke-opacity="0" fill="#a5ceff"/><use xlink:href="#d" transform="matrix(1,0,0,1,839.5468148542318,544.7639231012404) translate(3.5679012345678984 36.05555555555556)"/><use xlink:href="#e" transform="matrix(1,0,0,1,839.5468148542318,544.7639231012404) translate(65.64197530864197 36.05555555555556)"/><path d="M709.36 404.42c-8.94 0-16.2 7.24-16.2 16.18v48.56c0 8.94 7.26 16.2 16.2 16.2h129.5c8.93 0 16.18-7.26 16.18-16.2V420.6c0-8.94-7.25-16.18-16.2-16.18z" stroke="#000" stroke-opacity="0" fill="#a5ceff"/><use xlink:href="#f" transform="matrix(1,0,0,1,701.1700308182626,412.4165383093872) translate(35.02469135802469 14.222222222222223)"/><use xlink:href="#g" transform="matrix(1,0,0,1,701.1700308182626,412.4165383093872) translate(34.60493827160493 35.55555555555556)"/><use xlink:href="#h" transform="matrix(1,0,0,1,701.1700308182626,412.4165383093872) translate(-1.5679012345679126 56.88888888888889)"/><use xlink:href="#i" transform="matrix(1,0,0,1,701.1700308182626,412.4165383093872) translate(73 78.22222222222223)"/><path d="M1127.16 536.76c-8.94 0-16.18 7.25-16.18 16.2v48.55c0 8.95 7.24 16.2 16.18 16.2h129.5c8.94 0 16.18-7.25 16.18-16.2v-48.55c0-8.94-7.24-16.2-16.18-16.2z" stroke="#000" stroke-opacity="0" fill="#a5ceff"/><use xlink:href="#j" transform="matrix(1,0,0,1,1118.9775866950663,544.7639231012404) translate(32.60493827160493 25.388888888888886)"/><use xlink:href="#k" transform="matrix(1,0,0,1,1118.9775866950663,544.7639231012404) translate(68.06172839506172 25.388888888888886)"/><use xlink:href="#e" transform="matrix(1,0,0,1,1118.9775866950663,544.7639231012404) translate(34.60493827160493 46.72222222222222)"/><path d="M421.66 714.24c0-4.42 3.58-8 8-8h145.87c4.42 0 8 3.58 8 8v64.93c0 4.42-3.58 8-8 8H429.66c-4.42 0-8-3.58-8-8z" stroke="#000" stroke-opacity="0" fill="#e8f2ff" fill-opacity=".33"/><path d="M434.42 723.03c0-4.42 3.58-8 8-8h145.86c4.42 0 8 3.58 8 8v64.93c0 4.42-3.58 8-8 8H442.42c-4.42 0-8-3.58-8-8z" stroke="#000" stroke-opacity="0" fill="#e8f2ff" fill-opacity=".33"/><path d="M448.28 731.8c0-4.4 3.58-8 8-8h145.87c4.42 0 8 3.6 8 8v64.95c0 4.42-3.58 8-8 8H456.28c-4.42 0-8-3.58-8-8z" stroke="#000" stroke-opacity="0" fill="#e8f2ff"/><use xlink:href="#l" transform="matrix(1,0,0,1,453.28306996708557,728.8138699750173) translate(25.703703703703695 38.62847222222222)"/><use xlink:href="#m" transform="matrix(1,0,0,1,453.28306996708557,728.8138699750173) translate(79.87654320987653 38.62847222222222)"/><path d="M986.84 733c0-4.43 3.58-8 8-8h145.87c4.42 0 8 3.57 8 8v64.92c0 4.42-3.58 8-8 8H994.85c-4.42 0-8-3.58-8-8z" stroke="#000" stroke-opacity="0" fill="#d7e9ff" fill-opacity=".34"/><use xlink:href="#n" transform="matrix(1,0,0,1,991.8389837925715,729.99074155221) translate(29.62962962962962 38.62847222222222)"/><use xlink:href="#o" transform="matrix(1,0,0,1,991.8389837925715,729.99074155221) translate(84.8395061728395 38.62847222222222)"/><path d="M676.8 764.96v1H660.6v-1zm-66.15-.18v-1h9.53v1z" fill="#333"/><path d="M610.66 764.78h-.5v-1h.5zM691.55 765.46l-14.26 4.63v-9.28z" fill="#333"/><path d="M693.17 765.46l-16.38 5.32v-10.65zm-15.38 3.94l12.13-3.94-12.14-3.95z" fill="#333"/><use xlink:href="#p" transform="matrix(1,0,0,1,620.177096889912,753.6139933903687) translate(0.004999999999999005 14.222222222222223)"/><path d="M822.1 671.84h-35.96l-3.02.4-2.76 1.14-2.38 1.84-1.84 2.38-1.14 2.76-.4 3.02v41.1h-1v-41.17l.42-3.2 1.25-3 2-2.6 2.6-2 3-1.24 3.2-.42h36.04zM913 659.38l-.42 3.2-1.24 3-2 2.6-2.6 2-3 1.24-3.2.42h-36.04v-1h35.97l3-.4 2.77-1.13 2.4-1.83 1.82-2.4 1.15-2.74.38-3.02V634.1h1zM774.6 725h-1v-.52h1zM917.12 633.58h-9.27l4.63-14.26z" fill="#333"/><path d="M917.8 634.08h-10.64l5.32-16.38zm-9.27-1h7.9l-3.95-12.15z" fill="#333"/><use xlink:href="#q" transform="matrix(1,0,0,1,822.1068178150981,660.6774556600584) translate(0.004999999999999005 14.222222222222223)"/><path d="M949.2 511.56h-24.7l-3 .4-2.76 1.13-2.4 1.83-1.82 2.4-1.14 2.74-.4 3.02v13.16h-1v-13.24l.42-3.2 1.24-3 2-2.6 2.6-2 3-1.24 3.2-.42h24.76zm103.23-9.77l-.25 2.2-1.26 3-2.15 2.4-2.84 1.6-3.27.56h-27.44v-1h27.35l3.02-.53 2.53-1.42 1.93-2.15 1.15-2.72.24-2.05zM912.98 536.76h-1v-.5h1zM1056.57 501.23h-9.27l4.64-14.26z" fill="#333"/><path d="M1057.26 501.73h-10.65l5.34-16.38zm-9.27-1h7.88l-3.94-12.14z" fill="#333"/><use xlink:href="#r" transform="matrix(1,0,0,1,949.1967057315355,500.3903540386471) translate(0.005000000000002558 14.222222222222223)"/><path d="M1179.94 510.56l3.22.42 3 1.24 2.6 2 2 2.6 1.23 3 .4 3.2v13.24h-1V523.1l-.38-3.03-1.15-2.75-1.83-2.4-2.4-1.83-2.75-1.15-3.02-.4h-24.94v-1zm-126.13-4.1l1.94 2.15 2.54 1.43 3.02.53h27.6v1h-27.68l-3.28-.57-2.83-1.6-2.14-2.4-1.27-3-.26-2.2 1-.12.23 2.05z" fill="#333"/><path d="M1192.4 536.76h-1v-.5h1zM1056.57 501.23h-9.27l4.64-14.26z" fill="#333"/><path d="M1057.26 501.73h-10.65l5.34-16.38zm-9.27-1h7.88l-3.94-12.14z" fill="#333"/><use xlink:href="#r" transform="matrix(1,0,0,1,1088.9120916519528,500.3903540386471) translate(0.005000000000002558 14.222222222222223)"/><path d="M874.05 445.38h-18.5v-1h18.5zm80.57 0h-14.54v-1h14.54zM855.55 445.38h-.5v-1h.5zM969.4 444.88l-14.28 4.64v-9.27z" fill="#333"/><path d="M971 444.88l-16.38 5.33v-10.64zm-15.38 3.95l12.15-3.95-12.15-3.94z" fill="#333"/><use xlink:href="#r" transform="matrix(1,0,0,1,874.0510745169282,434.2166617247386) translate(0.005000000000002558 14.222222222222223)"/><path d="M1192.4 753.5l-.4 3.2-1.25 3-2 2.6-2.6 2-3 1.24-3.2.42h-30.74v-1h30.68l3-.4 2.77-1.14 2.4-1.83 1.82-2.4 1.15-2.76.4-3.02v-43.87h1zm0-65.3h-1V634.1h1z" fill="#333"/><path d="M1149.22 765.96h-.5v-1h.5zM1196.55 633.58h-9.27l4.63-14.26z" fill="#333"/><path d="M1197.23 634.08h-10.64l5.3-16.38zm-9.27-1h7.9l-3.95-12.15z" fill="#333"/><use xlink:href="#s" transform="matrix(1,0,0,1,1149.0222779702135,688.2146049581371) translate(0.005000000000002558 14.222222222222223)"/><path d="M1067.97 150.56c0-4.42 3.58-8 8-8h145.86c4.42 0 8 3.58 8 8v64.93c0 4.4-3.58 8-8 8h-145.86c-4.42 0-8-3.6-8-8z" stroke="#000" stroke-opacity="0" fill="#c7e8ac"/><use xlink:href="#t" transform="matrix(1,0,0,1,1072.9660280140881,147.55931966479312) translate(10.444444444444429 38.62847222222222)"/><use xlink:href="#u" transform="matrix(1,0,0,1,1072.9660280140881,147.55931966479312) translate(71.58024691358024 38.62847222222222)"/><path d="M1269.43 150.56c0-4.42 3.58-8 8-8h145.86c4.4 0 8 3.58 8 8v64.93c0 4.4-3.6 8-8 8h-145.87c-4.42 0-8-3.6-8-8z" stroke="#000" stroke-opacity="0" fill="#c7e8ac"/><use xlink:href="#v" transform="matrix(1,0,0,1,1274.4251581678973,147.55931966479312) translate(7.975308641975303 38.62847222222222)"/><use xlink:href="#u" transform="matrix(1,0,0,1,1274.4251581678973,147.55931966479312) translate(74.04938271604938 38.62847222222222)"/><path d="M758.3 149.06c0-4.42 3.6-8 8-8h145.87c4.42 0 8 3.58 8 8V214c0 4.4-3.58 8-8 8H766.3c-4.4 0-8-3.6-8-8z" stroke="#333" fill="#fff"/><use xlink:href="#w" transform="matrix(1,0,0,1,763.305896655593,146.06018517843142) translate(16.86419753086419 27.53472222222222)"/><use xlink:href="#x" transform="matrix(1,0,0,1,763.305896655593,146.06018517843142) translate(82.88888888888889 27.53472222222222)"/><use xlink:href="#y" transform="matrix(1,0,0,1,763.305896655593,146.06018517843142) translate(5.506172839506149 48.86805555555556)"/><use xlink:href="#z" transform="matrix(1,0,0,1,763.305896655593,146.06018517843142) translate(52.864197530864175 48.86805555555556)"/><use xlink:href="#A" transform="matrix(1,0,0,1,763.305896655593,146.06018517843142) translate(73.55555555555554 48.86805555555556)"/><path d="M1039.97 312.96l3.2.42 3 1.24 2.6 2 2 2.6 1.25 3 .42 3.2v62.6h-1V325.5l-.4-3.03-1.14-2.75-1.83-2.4-2.4-1.83-2.75-1.15-3-.4h-22.4v-1zm-199.84-8.52l1.15 2.75 1.83 2.38 2.4 1.84 2.76 1.14 3 .4h22.4v1H851.2l-3.2-.43-3-1.24-2.6-2-2-2.6-1.24-3-.42-3.2V223h1v78.42zM839.74 223h-1v-.5h1zM1051.94 402.8l-4.64-14.27h9.27z" fill="#333"/><path d="M1051.94 404.42l-5.33-16.4h10.66zm-3.95-15.4l3.94 12.16 3.94-12.15z" fill="#333"/><use xlink:href="#B" transform="matrix(1,0,0,1,873.6635923112285,302.6551517439093) translate(0.0049999999999954525 14.4)"/><use xlink:href="#C" transform="matrix(1,0,0,1,873.6635923112285,302.6551517439093) translate(50.955 14.4)"/><use xlink:href="#D" transform="matrix(1,0,0,1,873.6635923112285,302.6551517439093) translate(123.855 14.4)"/><path d="M1149.4 432.92l-.42 3.2-1.24 3-2 2.6-2.6 2-3 1.24-3.2.42h-3.57v-1h3.5l3-.4 2.77-1.13 2.4-1.84 1.82-2.38 1.14-2.75.4-3.02v-98h1zm0-119.67h-1v-73.37h1zM1153.53 239.38h-9.27l4.64-14.27z" fill="#333"/><path d="M1154.22 239.88h-10.64l5.32-16.4zm-9.27-1h7.9l-3.95-12.15zM1133.38 445.38h-.5v-1h.5z" fill="#333"/><use xlink:href="#E" transform="matrix(1,0,0,1,1111.9496081781242,313.25243447134227) translate(0.005000000000002558 14.4)"/><path d="M1350.86 432.92l-.42 3.2-1.25 3-2 2.6-2.6 2-3 1.24-3.2.42h-205.03v-1h204.96l3-.4 2.77-1.13 2.4-1.84 1.82-2.38 1.14-2.75.4-3.02v-83.83h1zm0-105.5h-1v-87.54h1zM1355 239.38h-9.28l4.64-14.27z" fill="#333"/><path d="M1355.68 239.88h-10.64l5.32-16.4zm-9.27-1h7.9l-3.94-12.15zM1133.38 445.38h-.5v-1h.5z" fill="#333"/><use xlink:href="#E" transform="matrix(1,0,0,1,1313.4087383319334,327.42342739534183) translate(0.005000000000002558 14.4)"/><path d="M630.35 182.03h-32.7l-3.02.4-2.75 1.13-2.4 1.84-1.83 2.4-1.14 2.74-.38 3.02v13.55h-1v-13.6l.42-3.22 1.24-3 2-2.6 2.6-2 3-1.23 3.2-.42h32.77zm126.96 0h-45v-1h45z" fill="#333"/><path d="M757.8 182.03h-.5v-1h.5zM585.62 221.87l-4.64-14.26h9.27z" fill="#333"/><path d="M585.62 223.5l-5.33-16.4h10.64zm-3.95-15.4l3.95 12.16 3.94-12.15z" fill="#333"/><use xlink:href="#F" transform="matrix(1,0,0,1,630.347764090094,170.72697526044948) translate(0.005000000000002558 14.4)"/><path d="M941.2 183.53h-20.03v-1h20.03zm110.38 0h-23.53v-1h23.53z" fill="#333"/><path d="M921.2 183.53h-.53v-1h.52zM1066.35 183.03l-14.27 4.63v-9.27z" fill="#333"/><path d="M1067.97 183.03l-16.4 5.32V177.7zm-15.4 3.94l12.16-3.94-12.15-3.95z" fill="#333"/><use xlink:href="#G" transform="matrix(1,0,0,1,941.2012972439754,172.2261097468112) translate(0.005000000000002558 14.4)"/><path d="M1055.8 670.84l3.22.42 3 1.25 2.6 2 2 2.6 1.23 3 .42 3.2v41.2h-1v-41.12l-.4-3.02-1.13-2.76-1.84-2.38-2.4-1.84-2.74-1.14-3.02-.4h-29.1v-1zm-142.42-8.5l1.14 2.74 1.83 2.4 2.4 1.83 2.75 1.15 3 .4h29.1v1h-29.15l-3.2-.43-3-1.24-2.6-2-2-2.6-1.25-3-.42-3.2v-25.3h1v25.23z" fill="#333"/><path d="M1068.27 725h-1v-.52h1zM917.12 633.58h-9.27l4.63-14.26z" fill="#333"/><path d="M917.8 634.08h-10.64l5.32-16.38zm-9.27-1h7.9l-3.95-12.15z" fill="#333"/><use xlink:href="#H" transform="matrix(1,0,0,1,953.6079609689193,660.6774556600586) translate(0.005000000000002558 14.222222222222223)"/><path d="M500.76 393.55c0-4.42 3.6-8 8-8h171.82c4.42 0 8 3.58 8 8v234.02c0 4.42-3.58 8-8 8H508.76c-4.4 0-8-3.58-8-8z" fill="#fff"/><use xlink:href="#I" transform="matrix(1,0,0,1,505.764679145921,390.548464403279) translate(16.037037037037024 51.87847222222222)"/><use xlink:href="#J" transform="matrix(1,0,0,1,505.764679145921,390.548464403279) translate(86.01234567901234 51.87847222222222)"/><use xlink:href="#K" transform="matrix(1,0,0,1,505.764679145921,390.548464403279) translate(89 73.21180555555556)"/><use xlink:href="#L" transform="matrix(1,0,0,1,505.764679145921,390.548464403279) translate(25.839506172839492 94.5451388888889)"/><use xlink:href="#M" transform="matrix(1,0,0,1,505.764679145921,390.548464403279) translate(80.11111111111111 94.5451388888889)"/><use xlink:href="#N" transform="matrix(1,0,0,1,505.764679145921,390.548464403279) translate(16.97530864197529 115.87847222222223)"/><use xlink:href="#O" transform="matrix(1,0,0,1,505.764679145921,390.548464403279) translate(93.96296296296296 115.87847222222223)"/><use xlink:href="#P" transform="matrix(1,0,0,1,505.764679145921,390.548464403279) translate(123.5925925925926 115.87847222222223)"/><use xlink:href="#Q" transform="matrix(1,0,0,1,505.764679145921,390.548464403279) translate(23.419753086419746 137.21180555555557)"/><use xlink:href="#R" transform="matrix(1,0,0,1,505.764679145921,390.548464403279) translate(93.39506172839506 137.21180555555557)"/><use xlink:href="#S" transform="matrix(1,0,0,1,505.764679145921,390.548464403279) translate(1.1728395061728207 158.5451388888889)"/><use xlink:href="#T" transform="matrix(1,0,0,1,505.764679145921,390.548464403279) translate(89.96296296296295 158.5451388888889)"/><use xlink:href="#U" transform="matrix(1,0,0,1,505.764679145921,390.548464403279) translate(152.1358024691358 158.5451388888889)"/><use xlink:href="#V" transform="matrix(1,0,0,1,505.764679145921,390.548464403279) translate(7.123456790123456 179.87847222222226)"/><use xlink:href="#W" transform="matrix(1,0,0,1,505.764679145921,390.548464403279) translate(68.30864197530863 179.87847222222226)"/><use xlink:href="#X" transform="matrix(1,0,0,1,505.764679145921,390.548464403279) translate(86.03703703703704 179.87847222222226)"/><use xlink:href="#Y" transform="matrix(1,0,0,1,505.764679145921,390.548464403279) translate(156.06172839506172 179.87847222222226)"/><use xlink:href="#Z" transform="matrix(1,0,0,1,505.764679145921,390.548464403279) translate(32.753086419753075 201.2118055555556)"/><use xlink:href="#aa" transform="matrix(1,0,0,1,505.764679145921,390.548464403279) translate(57.444444444444436 201.2118055555556)"/><path d="M891.97 765.96h-20.55v-1h20.55zm94.37 0H965v-1h21.34zM986.84 765.96h-.5v-1h.5zM870.92 770.1l-14.26-4.64 14.26-4.64z" fill="#333"/><path d="M871.42 770.78l-16.38-5.32 16.38-5.33zm-13.15-5.32l12.15 3.94v-7.9z" fill="#333"/><g><use xlink:href="#H" transform="matrix(1,0,0,1,891.9660877512166,754.790864967561) translate(0.005000000000002558 14.222222222222223)"/></g><path d="M42.48 149.06c0-4.42 3.58-8 8-8h89.32c4.42 0 8 3.58 8 8v26.28c0 4.42-3.58 8-8 8H50.48c-4.42 0-8-3.58-8-8z" fill="none"/><g><use xlink:href="#ab" transform="matrix(1,0,0,1,47.482230646755845,146.06018517843142) translate(0.34691358024691965 21.511111111111106)"/></g><path d="M77.2 209.4c-3.53 0-6.38 2.86-6.38 6.38v19.3c0 3.53 2.85 6.38 6.37 6.38h19.1c3.5 0 6.36-2.85 6.36-6.37v-19.32c0-3.52-2.85-6.37-6.36-6.37z" stroke="#000" stroke-opacity="0" fill="#75b2ff"/><path d="M77.2 258.3c-3.53 0-6.38 2.84-6.38 6.36v19.3c0 3.53 2.85 6.38 6.37 6.38h19.1c3.5 0 6.36-2.85 6.36-6.37v-19.3c0-3.53-2.85-6.38-6.36-6.38z" stroke="#000" stroke-opacity="0" fill="#a5ceff"/><path d="M77.2 308.22c-3.53 0-6.38 2.85-6.38 6.37v19.3c0 3.52 2.85 6.37 6.37 6.37h19.1c3.5 0 6.36-2.85 6.36-6.37v-19.3c0-3.53-2.85-6.38-6.36-6.38z" stroke="#000" stroke-opacity="0" fill="#d7e9ff"/><path d="M70.82 438.67c0-4.42 3.58-8 8-8h15.84c4.42 0 8 3.58 8 8v16.05c0 4.42-3.58 8-8 8H78.82c-4.42 0-8-3.58-8-8z" stroke="#000" stroke-opacity="0" fill="#c7e8ac"/><path d="M110.05 217.85c0-4.42 3.58-8 8-8h59.86c4.43 0 8 3.58 8 8v15.6c0 4.43-3.57 8-8 8h-59.85c-4.42 0-8-3.57-8-8z" fill="none"/><g><use xlink:href="#ac" transform="matrix(1,0,0,1,115.04849348513017,214.85170416429713) translate(0.07499999999999574 14.4)"/></g><path d="M110.05 266.73c0-4.42 3.58-8 8-8h71.76c4.43 0 8 3.58 8 8v15.6c0 4.43-3.57 8-8 8h-71.75c-4.42 0-8-3.57-8-8z" fill="none"/><g><use xlink:href="#ad" transform="matrix(1,0,0,1,115.04849348513014,263.731597006792) translate(0.1249999999999929 14.4)"/></g><path d="M110.05 315.6c0-4.4 3.58-8 8-8H281.9c4.43 0 8 3.6 8 8v15.62c0 4.42-3.57 8-8 8H118.06c-4.42 0-8-3.58-8-8z" fill="none"/><g><use xlink:href="#ae" transform="matrix(1,0,0,1,115.04849348513017,312.61148984928724) translate(0.07499999999998863 14.4)"/><use xlink:href="#af" transform="matrix(1,0,0,1,115.04849348513017,312.61148984928724) translate(105.975 14.4)"/></g><path d="M110.05 439.1c0-4.4 3.58-8 8-8h64.86c4.43 0 8 3.6 8 8v15.62c0 4.42-3.57 8-8 8h-64.85c-4.42 0-8-3.58-8-8z" fill="none"/><g><use xlink:href="#ag" transform="matrix(1,0,0,1,115.04849348513014,436.1124423122172) translate(0.07499999999999574 14.4)"/></g><path d="M216.64 228.5c0-4.43 3.58-8 8-8h163.5c4.43 0 8 3.57 8 8v37.2c0 4.4-3.57 8-8 8h-163.5c-4.42 0-8-3.6-8-8z" fill="none"/><g><use xlink:href="#ah" transform="matrix(1,0,0,1,221.6388108141213,225.4864803186596) translate(0.2499999999999858 14.4)"/><use xlink:href="#ai" transform="matrix(1,0,0,1,221.6388108141213,225.4864803186596) translate(113.9 14.4)"/><use xlink:href="#aj" transform="matrix(1,0,0,1,221.6388108141213,225.4864803186596) translate(55.55 36)"/></g><path d="M70.82 366.15c0-4.42 3.58-8 8-8h15.84c4.42 0 8 3.58 8 8v15c0 4.42-3.58 8-8 8H78.82c-4.42 0-8-3.58-8-8z" stroke="#000" stroke-opacity="0" fill="#d7e9ff" fill-opacity=".34"/><path d="M110.05 365.54c0-4.42 3.58-8 8-8h179.6c4.42 0 8 3.58 8 8v38.8c0 4.43-3.58 8-8 8h-179.6c-4.42 0-8-3.57-8-8z" fill="none"/><g><use xlink:href="#ak" transform="matrix(1,0,0,1,115.04849348513017,362.54012241999544) translate(0.20185185185184196 14.933333333333335)"/><use xlink:href="#al" transform="matrix(1,0,0,1,115.04849348513017,362.54012241999544) translate(106.10185185185185 14.933333333333335)"/><use xlink:href="#am" transform="matrix(1,0,0,1,115.04849348513017,362.54012241999544) translate(1.818518518518502 37.333333333333336)"/><use xlink:href="#an" transform="matrix(1,0,0,1,115.04849348513017,362.54012241999544) translate(61.91481481481481 37.333333333333336)"/><use xlink:href="#ao" transform="matrix(1,0,0,1,115.04849348513017,362.54012241999544) translate(132.43333333333334 37.333333333333336)"/></g><path d="M504.68 231.5c0-4.43 3.58-8 8-8h145.87c4.42 0 8 3.57 8 8v64.93c0 4.4-3.58 8-8 8H512.68c-4.42 0-8-3.6-8-8z" stroke="#000" stroke-opacity="0" fill="#e8f2ff" fill-opacity=".44"/><path d="M513.74 241.95c0-4.42 3.58-8 8-8H667.6c4.42 0 8 3.58 8 8v64.93c0 4.42-3.58 8-8 8H521.75c-4.42 0-8-3.58-8-8z" stroke="#000" stroke-opacity="0" fill="#e8f2ff"/><g><use xlink:href="#ap" transform="matrix(1,0,0,1,518.7389093068207,238.94668815516684) translate(0.49382716049382225 38.62847222222222)"/><use xlink:href="#m" transform="matrix(1,0,0,1,518.7389093068207,238.94668815516684) translate(105.08641975308643 38.62847222222222)"/></g><path d="M774.6 388.03h-1V346.9h1zm-9.25-113.7l3 1.25 2.6 2 2 2.6 1.23 3 .42 3.2v17.32h-1v-17.25l-.4-3.02-1.13-2.76-1.84-2.4-2.4-1.82-2.74-1.14-3.03-.4H676.1v-1h86.04z" fill="#333"/><path d="M676.12 274.9h-.5v-1h.5zM774.1 402.8l-4.63-14.27h9.27z" fill="#333"/><path d="M774.1 404.42l-5.32-16.4h10.65zm-3.94-15.4l3.94 12.16 3.95-12.15z" fill="#333"/><g><use xlink:href="#aq" transform="matrix(1,0,0,1,715.6536109822987,303.70281619993045) translate(31.005000000000003 14.4)"/><use xlink:href="#ar" transform="matrix(1,0,0,1,715.6536109822987,303.70281619993045) translate(0.005000000000002558 36)"/><use xlink:href="#as" transform="matrix(1,0,0,1,715.6536109822987,303.70281619993045) translate(101.905 36)"/></g><path d="M296.1 60.2c0-4.43 3.57-8 8-8h865.6c4.4 0 8 3.57 8 8v42.27c0 4.42-3.6 8-8 8H304.1c-4.43 0-8-3.58-8-8z" fill="none"/><g><use xlink:href="#at" transform="matrix(1,0,0,1,301.08566963308147,57.19293233979825) translate(0.20339506172871324 32.177777777777756)"/><use xlink:href="#au" transform="matrix(1,0,0,1,301.08566963308147,57.19293233979825) translate(125.22746913580269 32.177777777777756)"/><use xlink:href="#av" transform="matrix(1,0,0,1,301.08566963308147,57.19293233979825) translate(301.1996913580248 32.177777777777756)"/><use xlink:href="#aw" transform="matrix(1,0,0,1,301.08566963308147,57.19293233979825) translate(548.6780864197531 32.177777777777756)"/><use xlink:href="#ax" transform="matrix(1,0,0,1,301.08566963308147,57.19293233979825) translate(588.7885802469134 32.177777777777756)"/></g><defs><path fill="#333" d="M233-177c-1 41-23 64-60 70L243 0h-38l-65-103H63V0H30v-248c88 3 205-21 203 71zM63-129c60-2 137 13 137-47 0-61-80-42-137-45v92" id="ay"/><path fill="#333" d="M100-194c63 0 86 42 84 106H49c0 40 14 67 53 68 26 1 43-12 49-29l28 8c-11 28-37 45-77 45C44 4 14-33 15-96c1-61 26-98 85-98zm52 81c6-60-76-77-97-28-3 7-6 17-6 28h103" id="az"/><path fill="#333" d="M177-190C167-65 218 103 67 71c-23-6-38-20-44-43l32-5c15 47 100 32 89-28v-30C133-14 115 1 83 1 29 1 15-40 15-95c0-56 16-97 71-98 29-1 48 16 59 35 1-10 0-23 2-32h30zM94-22c36 0 50-32 50-73 0-42-14-75-50-75-39 0-46 34-46 75s6 73 46 73" id="aA"/><path fill="#333" d="M24-231v-30h32v30H24zM24 0v-190h32V0H24" id="aB"/><path fill="#333" d="M135-143c-3-34-86-38-87 0 15 53 115 12 119 90S17 21 10-45l28-5c4 36 97 45 98 0-10-56-113-15-118-90-4-57 82-63 122-42 12 7 21 19 24 35" id="aC"/><path fill="#333" d="M59-47c-2 24 18 29 38 22v24C64 9 27 4 27-40v-127H5v-23h24l9-43h21v43h35v23H59v120" id="aD"/><path fill="#333" d="M114-163C36-179 61-72 57 0H25l-1-190h30c1 12-1 29 2 39 6-27 23-49 58-41v29" id="aE"/><path fill="#333" d="M179-190L93 31C79 59 56 82 12 73V49c39 6 53-20 64-50L1-190h34L92-34l54-156h33" id="aF"/><g id="a"><use transform="matrix(0.04938271604938272,0,0,0.04938271604938272,0,0)" xlink:href="#ay"/><use transform="matrix(0.04938271604938272,0,0,0.04938271604938272,12.790123456790125,0)" xlink:href="#az"/><use transform="matrix(0.04938271604938272,0,0,0.04938271604938272,22.66666666666667,0)" xlink:href="#aA"/><use transform="matrix(0.04938271604938272,0,0,0.04938271604938272,32.543209876543216,0)" xlink:href="#aB"/><use transform="matrix(0.04938271604938272,0,0,0.04938271604938272,36.44444444444445,0)" xlink:href="#aC"/><use transform="matrix(0.04938271604938272,0,0,0.04938271604938272,45.33333333333334,0)" xlink:href="#aD"/><use transform="matrix(0.04938271604938272,0,0,0.04938271604938272,50.271604938271615,0)" xlink:href="#aE"/><use transform="matrix(0.04938271604938272,0,0,0.04938271604938272,56.14814814814817,0)" xlink:href="#aF"/></g><path fill="#333" d="M266 0h-40l-56-210L115 0H75L2-248h35L96-30l15-64 43-154h32l59 218 59-218h35" id="aG"/><path fill="#333" d="M106-169C34-169 62-67 57 0H25v-261h32l-1 103c12-21 28-36 61-36 89 0 53 116 60 194h-32v-121c2-32-8-49-39-48" id="aH"/><path fill="#333" d="M24 0v-261h32V0H24" id="aI"/><path fill="#333" d="M85-194c31 0 48 13 60 33l-1-100h32l1 261h-30c-2-10 0-23-3-31C134-8 116 4 85 4 32 4 16-35 15-94c0-66 23-100 70-100zm9 24c-40 0-46 34-46 75 0 40 6 74 45 74 42 0 51-32 51-76 0-42-9-74-50-73" id="aJ"/><g id="b"><use transform="matrix(0.04938271604938272,0,0,0.04938271604938272,0,0)" xlink:href="#aG"/><use transform="matrix(0.04938271604938272,0,0,0.04938271604938272,16.74074074074074,0)" xlink:href="#aH"/><use transform="matrix(0.04938271604938272,0,0,0.04938271604938272,26.617283950617285,0)" xlink:href="#aB"/><use transform="matrix(0.04938271604938272,0,0,0.04938271604938272,30.518518518518523,0)" xlink:href="#aD"/><use transform="matrix(0.04938271604938272,0,0,0.04938271604938272,35.45679012345679,0)" xlink:href="#az"/><use transform="matrix(0.04938271604938272,0,0,0.04938271604938272,45.333333333333336,0)" xlink:href="#aI"/><use transform="matrix(0.04938271604938272,0,0,0.04938271604938272,49.23456790123457,0)" xlink:href="#aB"/><use transform="matrix(0.04938271604938272,0,0,0.04938271604938272,53.135802469135804,0)" xlink:href="#aC"/><use transform="matrix(0.04938271604938272,0,0,0.04938271604938272,62.0246913580247,0)" xlink:href="#aD"/><use transform="matrix(0.04938271604938272,0,0,0.04938271604938272,66.96296296296296,0)" xlink:href="#az"/><use transform="matrix(0.04938271604938272,0,0,0.04938271604938272,76.8395061728395,0)" xlink:href="#aJ"/></g><path fill="#333" d="M240 0l2-218c-23 76-54 145-80 218h-23L58-218 59 0H30v-248h44l77 211c21-75 51-140 76-211h43V0h-30" id="aK"/><path fill="#333" d="M117-194c89-4 53 116 60 194h-32v-121c0-31-8-49-39-48C34-167 62-67 57 0H25l-1-190h30c1 10-1 24 2 32 11-22 29-35 61-36" id="aL"/><g id="c"><use transform="matrix(0.04938271604938272,0,0,0.04938271604938272,0,0)" xlink:href="#aK"/><use transform="matrix(0.04938271604938272,0,0,0.04938271604938272,14.765432098765434,0)" xlink:href="#aB"/><use transform="matrix(0.04938271604938272,0,0,0.04938271604938272,18.666666666666668,0)" xlink:href="#aL"/><use transform="matrix(0.04938271604938272,0,0,0.04938271604938272,28.543209876543212,0)" xlink:href="#aD"/><use transform="matrix(0.04938271604938272,0,0,0.04938271604938272,33.48148148148148,0)" xlink:href="#az"/><use transform="matrix(0.04938271604938272,0,0,0.04938271604938272,43.358024691358025,0)" xlink:href="#aE"/></g><g id="d"><use transform="matrix(0.04938271604938272,0,0,0.04938271604938272,0,0)" xlink:href="#aK"/><use transform="matrix(0.04938271604938272,0,0,0.04938271604938272,14.765432098765434,0)" xlink:href="#aB"/><use transform="matrix(0.04938271604938272,0,0,0.04938271604938272,18.666666666666668,0)" xlink:href="#aL"/><use transform="matrix(0.04938271604938272,0,0,0.04938271604938272,28.543209876543212,0)" xlink:href="#aD"/><use transform="matrix(0.04938271604938272,0,0,0.04938271604938272,33.48148148148148,0)" xlink:href="#aB"/><use transform="matrix(0.04938271604938272,0,0,0.04938271604938272,37.382716049382715,0)" xlink:href="#aL"/><use transform="matrix(0.04938271604938272,0,0,0.04938271604938272,47.25925925925926,0)" xlink:href="#aA"/></g><path fill="#333" d="M212-179c-10-28-35-45-73-45-59 0-87 40-87 99 0 60 29 101 89 101 43 0 62-24 78-52l27 14C228-24 195 4 139 4 59 4 22-46 18-125c-6-104 99-153 187-111 19 9 31 26 39 46" id="aM"/><path fill="#333" d="M100-194c62-1 85 37 85 99 1 63-27 99-86 99S16-35 15-95c0-66 28-99 85-99zM99-20c44 1 53-31 53-75 0-43-8-75-51-75s-53 32-53 75 10 74 51 75" id="aN"/><g id="e"><use transform="matrix(0.04938271604938272,0,0,0.04938271604938272,0,0)" xlink:href="#aM"/><use transform="matrix(0.04938271604938272,0,0,0.04938271604938272,12.790123456790125,0)" xlink:href="#aN"/><use transform="matrix(0.04938271604938272,0,0,0.04938271604938272,22.66666666666667,0)" xlink:href="#aL"/><use transform="matrix(0.04938271604938272,0,0,0.04938271604938272,32.543209876543216,0)" xlink:href="#aD"/><use transform="matrix(0.04938271604938272,0,0,0.04938271604938272,37.48148148148149,0)" xlink:href="#aE"/><use transform="matrix(0.04938271604938272,0,0,0.04938271604938272,43.35802469135803,0)" xlink:href="#aN"/><use transform="matrix(0.04938271604938272,0,0,0.04938271604938272,53.23456790123457,0)" xlink:href="#aI"/><use transform="matrix(0.04938271604938272,0,0,0.04938271604938272,57.135802469135804,0)" xlink:href="#aI"/><use transform="matrix(0.04938271604938272,0,0,0.04938271604938272,61.037037037037045,0)" xlink:href="#az"/><use transform="matrix(0.04938271604938272,0,0,0.04938271604938272,70.9135802469136,0)" xlink:href="#aE"/></g><path fill="#333" d="M185-189c-5-48-123-54-124 2 14 75 158 14 163 119 3 78-121 87-175 55-17-10-28-26-33-46l33-7c5 56 141 63 141-1 0-78-155-14-162-118-5-82 145-84 179-34 5 7 8 16 11 25" id="aO"/><path fill="#333" d="M141-36C126-15 110 5 73 4 37 3 15-17 15-53c-1-64 63-63 125-63 3-35-9-54-41-54-24 1-41 7-42 31l-33-3c5-37 33-52 76-52 45 0 72 20 72 64v82c-1 20 7 32 28 27v20c-31 9-61-2-59-35zM48-53c0 20 12 33 32 33 41-3 63-29 60-74-43 2-92-5-92 41" id="aP"/><path fill="#333" d="M84 4C-5 8 30-112 23-190h32v120c0 31 7 50 39 49 72-2 45-101 50-169h31l1 190h-30c-1-10 1-25-2-33-11 22-28 36-60 37" id="aQ"/><g id="f"><use transform="matrix(0.04938271604938272,0,0,0.04938271604938272,0,0)" xlink:href="#aO"/><use transform="matrix(0.04938271604938272,0,0,0.04938271604938272,11.851851851851853,0)" xlink:href="#aB"/><use transform="matrix(0.04938271604938272,0,0,0.04938271604938272,15.753086419753087,0)" xlink:href="#aA"/><use transform="matrix(0.04938271604938272,0,0,0.04938271604938272,25.629629629629633,0)" xlink:href="#aL"/><use transform="matrix(0.04938271604938272,0,0,0.04938271604938272,35.50617283950618,0)" xlink:href="#aP"/><use transform="matrix(0.04938271604938272,0,0,0.04938271604938272,45.38271604938272,0)" xlink:href="#aD"/><use transform="matrix(0.04938271604938272,0,0,0.04938271604938272,50.320987654320994,0)" xlink:href="#aQ"/><use transform="matrix(0.04938271604938272,0,0,0.04938271604938272,60.19753086419754,0)" xlink:href="#aE"/><use transform="matrix(0.04938271604938272,0,0,0.04938271604938272,66.07407407407408,0)" xlink:href="#az"/></g><g id="g"><use transform="matrix(0.04938271604938272,0,0,0.04938271604938272,0,0)" xlink:href="#aM"/><use transform="matrix(0.04938271604938272,0,0,0.04938271604938272,12.790123456790125,0)" xlink:href="#aN"/><use transform="matrix(0.04938271604938272,0,0,0.04938271604938272,22.66666666666667,0)" xlink:href="#aL"/><use transform="matrix(0.04938271604938272,0,0,0.04938271604938272,32.543209876543216,0)" xlink:href="#aD"/><use transform="matrix(0.04938271604938272,0,0,0.04938271604938272,37.48148148148149,0)" xlink:href="#aE"/><use transform="matrix(0.04938271604938272,0,0,0.04938271604938272,43.35802469135803,0)" xlink:href="#aN"/><use transform="matrix(0.04938271604938272,0,0,0.04938271604938272,53.23456790123457,0)" xlink:href="#aI"/><use transform="matrix(0.04938271604938272,0,0,0.04938271604938272,57.135802469135804,0)" xlink:href="#aI"/><use transform="matrix(0.04938271604938272,0,0,0.04938271604938272,61.037037037037045,0)" xlink:href="#az"/><use transform="matrix(0.04938271604938272,0,0,0.04938271604938272,70.9135802469136,0)" xlink:href="#aE"/></g><path fill="#333" d="M87 75C49 33 22-17 22-94c0-76 28-126 65-167h31c-38 41-64 92-64 168S80 34 118 75H87" id="aR"/><path fill="#333" d="M16-82v-28h88v28H16" id="aS"/><path fill="#333" d="M127-220V0H93v-220H8v-28h204v28h-85" id="aT"/><path fill="#333" d="M96-169c-40 0-48 33-48 73s9 75 48 75c24 0 41-14 43-38l32 2c-6 37-31 61-74 61-59 0-76-41-82-99-10-93 101-131 147-64 4 7 5 14 7 22l-32 3c-4-21-16-35-41-35" id="aU"/><path fill="#333" d="M33-261c38 41 65 92 65 168S71 34 33 75H2C39 34 66-17 66-93S39-220 2-261h31" id="aV"/><g id="h"><use transform="matrix(0.04938271604938272,0,0,0.04938271604938272,0,0)" xlink:href="#aR"/><use transform="matrix(0.04938271604938272,0,0,0.04938271604938272,5.8765432098765435,0)" xlink:href="#aK"/><use transform="matrix(0.04938271604938272,0,0,0.04938271604938272,20.641975308641978,0)" xlink:href="#az"/><use transform="matrix(0.04938271604938272,0,0,0.04938271604938272,30.518518518518523,0)" xlink:href="#aD"/><use transform="matrix(0.04938271604938272,0,0,0.04938271604938272,35.4567901234568,0)" xlink:href="#aP"/><use transform="matrix(0.04938271604938272,0,0,0.04938271604938272,45.33333333333334,0)" xlink:href="#aS"/><use transform="matrix(0.04938271604938272,0,0,0.04938271604938272,51.209876543209894,0)" xlink:href="#aT"/><use transform="matrix(0.04938271604938272,0,0,0.04938271604938272,61.38271604938273,0)" xlink:href="#aE"/><use transform="matrix(0.04938271604938272,0,0,0.04938271604938272,67.25925925925927,0)" xlink:href="#aP"/><use transform="matrix(0.04938271604938272,0,0,0.04938271604938272,77.13580246913581,0)" xlink:href="#aL"/><use transform="matrix(0.04938271604938272,0,0,0.04938271604938272,87.01234567901236,0)" xlink:href="#aC"/><use transform="matrix(0.04938271604938272,0,0,0.04938271604938272,95.90123456790124,0)" xlink:href="#aP"/><use transform="matrix(0.04938271604938272,0,0,0.04938271604938272,105.77777777777779,0)" xlink:href="#aU"/><use transform="matrix(0.04938271604938272,0,0,0.04938271604938272,114.66666666666667,0)" xlink:href="#aD"/><use transform="matrix(0.04938271604938272,0,0,0.04938271604938272,119.60493827160492,0)" xlink:href="#aB"/><use transform="matrix(0.04938271604938272,0,0,0.04938271604938272,123.50617283950618,0)" xlink:href="#aN"/><use transform="matrix(0.04938271604938272,0,0,0.04938271604938272,133.38271604938274,0)" xlink:href="#aL"/><use transform="matrix(0.04938271604938272,0,0,0.04938271604938272,143.2592592592593,0)" xlink:href="#aV"/></g><path fill="#333" d="M232-93c-1 65-40 97-104 97C67 4 28-28 28-90v-158h33c8 89-33 224 67 224 102 0 64-133 71-224h33v155" id="aW"/><path fill="#333" d="M33 0v-248h34V0H33" id="aX"/><g id="j"><use transform="matrix(0.04938271604938272,0,0,0.04938271604938272,0,0)" xlink:href="#aW"/><use transform="matrix(0.04938271604938272,0,0,0.04938271604938272,12.790123456790125,0)" xlink:href="#ay"/><use transform="matrix(0.04938271604938272,0,0,0.04938271604938272,25.58024691358025,0)" xlink:href="#aX"/></g><path fill="#333" d="M30-248c87 1 191-15 191 75 0 78-77 80-158 76V0H30v-248zm33 125c57 0 124 11 124-50 0-59-68-47-124-48v98" id="aY"/><path fill="#333" d="M101-234c-31-9-42 10-38 44h38v23H63V0H32v-167H5v-23h27c-7-52 17-82 69-68v24" id="aZ"/><path fill="#333" d="M141 0L90-78 38 0H4l68-98-65-92h35l48 74 47-74h35l-64 92 68 98h-35" id="ba"/><g id="k"><use transform="matrix(0.04938271604938272,0,0,0.04938271604938272,0,0)" xlink:href="#aY"/><use transform="matrix(0.04938271604938272,0,0,0.04938271604938272,11.851851851851853,0)" xlink:href="#aE"/><use transform="matrix(0.04938271604938272,0,0,0.04938271604938272,17.728395061728396,0)" xlink:href="#az"/><use transform="matrix(0.04938271604938272,0,0,0.04938271604938272,27.60493827160494,0)" xlink:href="#aZ"/><use transform="matrix(0.04938271604938272,0,0,0.04938271604938272,32.543209876543216,0)" xlink:href="#aB"/><use transform="matrix(0.04938271604938272,0,0,0.04938271604938272,36.44444444444445,0)" xlink:href="#ba"/></g><g id="l"><use transform="matrix(0.04938271604938272,0,0,0.04938271604938272,0,0)" xlink:href="#aK"/><use transform="matrix(0.04938271604938272,0,0,0.04938271604938272,14.765432098765434,0)" xlink:href="#aB"/><use transform="matrix(0.04938271604938272,0,0,0.04938271604938272,18.666666666666668,0)" xlink:href="#aL"/><use transform="matrix(0.04938271604938272,0,0,0.04938271604938272,28.543209876543212,0)" xlink:href="#aD"/><use transform="matrix(0.04938271604938272,0,0,0.04938271604938272,33.48148148148148,0)" xlink:href="#az"/><use transform="matrix(0.04938271604938272,0,0,0.04938271604938272,43.358024691358025,0)" xlink:href="#aE"/></g><path fill="#333" d="M30 0v-248h187v28H63v79h144v27H63v87h162V0H30" id="bb"/><path fill="#333" d="M140-251c81 0 123 46 123 126C263-46 219 4 140 4 59 4 17-45 17-125s42-126 123-126zm0 227c63 0 89-41 89-101s-29-99-89-99c-61 0-89 39-89 99S79-25 140-24" id="bc"/><path fill="#333" d="M205 0l-28-72H64L36 0H1l101-248h38L239 0h-34zm-38-99l-47-123c-12 45-31 82-46 123h93" id="bd"/><g id="m"><use transform="matrix(0.04938271604938272,0,0,0.04938271604938272,0,0)" xlink:href="#bb"/><use transform="matrix(0.04938271604938272,0,0,0.04938271604938272,11.851851851851853,0)" xlink:href="#bc"/><use transform="matrix(0.04938271604938272,0,0,0.04938271604938272,25.679012345679016,0)" xlink:href="#bd"/><use transform="matrix(0.04938271604938272,0,0,0.04938271604938272,37.53086419753087,0)" xlink:href="#aC"/></g><path fill="#333" d="M210-169c-67 3-38 105-44 169h-31v-121c0-29-5-50-35-48C34-165 62-65 56 0H25l-1-190h30c1 10-1 24 2 32 10-44 99-50 107 0 11-21 27-35 58-36 85-2 47 119 55 194h-31v-121c0-29-5-49-35-48" id="be"/><g id="n"><use transform="matrix(0.04938271604938272,0,0,0.04938271604938272,0,0)" xlink:href="#bd"/><use transform="matrix(0.04938271604938272,0,0,0.04938271604938272,11.851851851851853,0)" xlink:href="#aJ"/><use transform="matrix(0.04938271604938272,0,0,0.04938271604938272,21.7283950617284,0)" xlink:href="#be"/><use transform="matrix(0.04938271604938272,0,0,0.04938271604938272,36.49382716049384,0)" xlink:href="#aB"/><use transform="matrix(0.04938271604938272,0,0,0.04938271604938272,40.39506172839507,0)" xlink:href="#aL"/></g><g id="o"><use transform="matrix(0.04938271604938272,0,0,0.04938271604938272,0,0)" xlink:href="#bb"/><use transform="matrix(0.04938271604938272,0,0,0.04938271604938272,11.851851851851853,0)" xlink:href="#bc"/><use transform="matrix(0.04938271604938272,0,0,0.04938271604938272,25.679012345679016,0)" xlink:href="#bd"/></g><g id="p"><use transform="matrix(0.04938271604938272,0,0,0.04938271604938272,0,0)" xlink:href="#aW"/><use transform="matrix(0.04938271604938272,0,0,0.04938271604938272,12.790123456790125,0)" xlink:href="#aC"/><use transform="matrix(0.04938271604938272,0,0,0.04938271604938272,21.679012345679013,0)" xlink:href="#az"/><use transform="matrix(0.04938271604938272,0,0,0.04938271604938272,31.555555555555557,0)" xlink:href="#aC"/></g><g id="q"><use transform="matrix(0.04938271604938272,0,0,0.04938271604938272,0,0)" xlink:href="#aK"/><use transform="matrix(0.04938271604938272,0,0,0.04938271604938272,14.765432098765434,0)" xlink:href="#aB"/><use transform="matrix(0.04938271604938272,0,0,0.04938271604938272,18.666666666666668,0)" xlink:href="#aL"/><use transform="matrix(0.04938271604938272,0,0,0.04938271604938272,28.543209876543212,0)" xlink:href="#aD"/><use transform="matrix(0.04938271604938272,0,0,0.04938271604938272,33.48148148148148,0)" xlink:href="#aC"/></g><g id="r"><use transform="matrix(0.04938271604938272,0,0,0.04938271604938272,0,0)" xlink:href="#aM"/><use transform="matrix(0.04938271604938272,0,0,0.04938271604938272,12.790123456790125,0)" xlink:href="#aN"/><use transform="matrix(0.04938271604938272,0,0,0.04938271604938272,22.66666666666667,0)" xlink:href="#aL"/><use transform="matrix(0.04938271604938272,0,0,0.04938271604938272,32.543209876543216,0)" xlink:href="#aD"/><use transform="matrix(0.04938271604938272,0,0,0.04938271604938272,37.48148148148149,0)" xlink:href="#aE"/><use transform="matrix(0.04938271604938272,0,0,0.04938271604938272,43.35802469135803,0)" xlink:href="#aN"/><use transform="matrix(0.04938271604938272,0,0,0.04938271604938272,53.23456790123457,0)" xlink:href="#aI"/><use transform="matrix(0.04938271604938272,0,0,0.04938271604938272,57.135802469135804,0)" xlink:href="#aC"/></g><g id="s"><use transform="matrix(0.04938271604938272,0,0,0.04938271604938272,0,0)" xlink:href="#aM"/><use transform="matrix(0.04938271604938272,0,0,0.04938271604938272,12.790123456790125,0)" xlink:href="#aN"/><use transform="matrix(0.04938271604938272,0,0,0.04938271604938272,22.66666666666667,0)" xlink:href="#aL"/><use transform="matrix(0.04938271604938272,0,0,0.04938271604938272,32.543209876543216,0)" xlink:href="#aZ"/><use transform="matrix(0.04938271604938272,0,0,0.04938271604938272,37.48148148148149,0)" xlink:href="#aB"/><use transform="matrix(0.04938271604938272,0,0,0.04938271604938272,41.38271604938272,0)" xlink:href="#aA"/><use transform="matrix(0.04938271604938272,0,0,0.04938271604938272,51.25925925925927,0)" xlink:href="#aQ"/><use transform="matrix(0.04938271604938272,0,0,0.04938271604938272,61.13580246913581,0)" xlink:href="#aE"/><use transform="matrix(0.04938271604938272,0,0,0.04938271604938272,67.01234567901236,0)" xlink:href="#az"/><use transform="matrix(0.04938271604938272,0,0,0.04938271604938272,76.8888888888889,0)" xlink:href="#aC"/></g><path fill="#333" d="M30-248c118-7 216 8 213 122C240-48 200 0 122 0H30v-248zM63-27c89 8 146-16 146-99s-60-101-146-95v194" id="bf"/><g id="t"><use transform="matrix(0.04938271604938272,0,0,0.04938271604938272,0,0)" xlink:href="#bf"/><use transform="matrix(0.04938271604938272,0,0,0.04938271604938272,12.790123456790125,0)" xlink:href="#az"/><use transform="matrix(0.04938271604938272,0,0,0.04938271604938272,22.66666666666667,0)" xlink:href="#aZ"/><use transform="matrix(0.04938271604938272,0,0,0.04938271604938272,27.604938271604947,0)" xlink:href="#aP"/><use transform="matrix(0.04938271604938272,0,0,0.04938271604938272,37.48148148148149,0)" xlink:href="#aQ"/><use transform="matrix(0.04938271604938272,0,0,0.04938271604938272,47.35802469135803,0)" xlink:href="#aI"/><use transform="matrix(0.04938271604938272,0,0,0.04938271604938272,51.25925925925927,0)" xlink:href="#aD"/></g><path fill="#333" d="M108 0H70L1-190h34L89-25l56-165h34" id="bg"/><g id="u"><use transform="matrix(0.04938271604938272,0,0,0.04938271604938272,0,0)" xlink:href="#ay"/><use transform="matrix(0.04938271604938272,0,0,0.04938271604938272,12.790123456790125,0)" xlink:href="#az"/><use transform="matrix(0.04938271604938272,0,0,0.04938271604938272,22.66666666666667,0)" xlink:href="#aC"/><use transform="matrix(0.04938271604938272,0,0,0.04938271604938272,31.555555555555557,0)" xlink:href="#aN"/><use transform="matrix(0.04938271604938272,0,0,0.04938271604938272,41.4320987654321,0)" xlink:href="#aI"/><use transform="matrix(0.04938271604938272,0,0,0.04938271604938272,45.333333333333336,0)" xlink:href="#bg"/><use transform="matrix(0.04938271604938272,0,0,0.04938271604938272,54.22222222222223,0)" xlink:href="#az"/><use transform="matrix(0.04938271604938272,0,0,0.04938271604938272,64.09876543209877,0)" xlink:href="#aE"/></g><g id="v"><use transform="matrix(0.04938271604938272,0,0,0.04938271604938272,0,0)" xlink:href="#aM"/><use transform="matrix(0.04938271604938272,0,0,0.04938271604938272,12.790123456790125,0)" xlink:href="#aQ"/><use transform="matrix(0.04938271604938272,0,0,0.04938271604938272,22.66666666666667,0)" xlink:href="#aC"/><use transform="matrix(0.04938271604938272,0,0,0.04938271604938272,31.555555555555557,0)" xlink:href="#aD"/><use transform="matrix(0.04938271604938272,0,0,0.04938271604938272,36.49382716049384,0)" xlink:href="#aN"/><use transform="matrix(0.04938271604938272,0,0,0.04938271604938272,46.37037037037038,0)" xlink:href="#be"/></g><g id="w"><use transform="matrix(0.04938271604938272,0,0,0.04938271604938272,0,0)" xlink:href="#bf"/><use transform="matrix(0.04938271604938272,0,0,0.04938271604938272,12.790123456790125,0)" xlink:href="#aN"/><use transform="matrix(0.04938271604938272,0,0,0.04938271604938272,22.66666666666667,0)" xlink:href="#be"/><use transform="matrix(0.04938271604938272,0,0,0.04938271604938272,37.4320987654321,0)" xlink:href="#aP"/><use transform="matrix(0.04938271604938272,0,0,0.04938271604938272,47.308641975308646,0)" xlink:href="#aB"/><use transform="matrix(0.04938271604938272,0,0,0.04938271604938272,51.20987654320988,0)" xlink:href="#aL"/></g><path fill="#333" d="M206 0h-36l-40-164L89 0H53L-1-190h32L70-26l43-164h34l41 164 42-164h31" id="bh"/><g id="x"><use transform="matrix(0.04938271604938272,0,0,0.04938271604938272,0,0)" xlink:href="#bc"/><use transform="matrix(0.04938271604938272,0,0,0.04938271604938272,13.827160493827162,0)" xlink:href="#bh"/><use transform="matrix(0.04938271604938272,0,0,0.04938271604938272,26.617283950617285,0)" xlink:href="#aL"/><use transform="matrix(0.04938271604938272,0,0,0.04938271604938272,36.49382716049383,0)" xlink:href="#az"/><use transform="matrix(0.04938271604938272,0,0,0.04938271604938272,46.370370370370374,0)" xlink:href="#aE"/></g><g id="y"><use transform="matrix(0.04938271604938272,0,0,0.04938271604938272,0,0)" xlink:href="#aR"/><use transform="matrix(0.04938271604938272,0,0,0.04938271604938272,5.8765432098765435,0)" xlink:href="#bb"/><use transform="matrix(0.04938271604938272,0,0,0.04938271604938272,17.728395061728396,0)" xlink:href="#bc"/><use transform="matrix(0.04938271604938272,0,0,0.04938271604938272,31.555555555555557,0)" xlink:href="#bd"/></g><g id="z"><use transform="matrix(0.04938271604938272,0,0,0.04938271604938272,0,0)" xlink:href="#aN"/><use transform="matrix(0.04938271604938272,0,0,0.04938271604938272,9.876543209876544,0)" xlink:href="#aE"/></g><g id="A"><use transform="matrix(0.04938271604938272,0,0,0.04938271604938272,0,0)" xlink:href="#aM"/><use transform="matrix(0.04938271604938272,0,0,0.04938271604938272,12.790123456790125,0)" xlink:href="#aN"/><use transform="matrix(0.04938271604938272,0,0,0.04938271604938272,22.66666666666667,0)" xlink:href="#aL"/><use transform="matrix(0.04938271604938272,0,0,0.04938271604938272,32.543209876543216,0)" xlink:href="#aD"/><use transform="matrix(0.04938271604938272,0,0,0.04938271604938272,37.48148148148149,0)" xlink:href="#aE"/><use transform="matrix(0.04938271604938272,0,0,0.04938271604938272,43.35802469135803,0)" xlink:href="#aP"/><use transform="matrix(0.04938271604938272,0,0,0.04938271604938272,53.23456790123457,0)" xlink:href="#aU"/><use transform="matrix(0.04938271604938272,0,0,0.04938271604938272,62.12345679012347,0)" xlink:href="#aD"/><use transform="matrix(0.04938271604938272,0,0,0.04938271604938272,67.06172839506175,0)" xlink:href="#aV"/></g><g id="B"><use transform="matrix(0.05,0,0,0.05,0,0)" xlink:href="#bc"/><use transform="matrix(0.05,0,0,0.05,14,0)" xlink:href="#bh"/><use transform="matrix(0.05,0,0,0.05,26.950000000000003,0)" xlink:href="#aL"/><use transform="matrix(0.05,0,0,0.05,36.95,0)" xlink:href="#aC"/></g><g id="C"><use transform="matrix(0.05,0,0,0.05,0,0)" xlink:href="#aJ"/><use transform="matrix(0.05,0,0,0.05,10,0)" xlink:href="#aN"/><use transform="matrix(0.05,0,0,0.05,20,0)" xlink:href="#be"/><use transform="matrix(0.05,0,0,0.05,34.95,0)" xlink:href="#aP"/><use transform="matrix(0.05,0,0,0.05,44.95,0)" xlink:href="#aB"/><use transform="matrix(0.05,0,0,0.05,48.900000000000006,0)" xlink:href="#aL"/><use transform="matrix(0.05,0,0,0.05,58.900000000000006,0)" xlink:href="#aC"/></g><g id="D"><use transform="matrix(0.05,0,0,0.05,0,0)" xlink:href="#aN"/><use transform="matrix(0.05,0,0,0.05,10,0)" xlink:href="#aL"/></g><g id="E"><use transform="matrix(0.05,0,0,0.05,0,0)" xlink:href="#ay"/><use transform="matrix(0.05,0,0,0.05,12.950000000000001,0)" xlink:href="#az"/><use transform="matrix(0.05,0,0,0.05,22.950000000000003,0)" xlink:href="#aC"/><use transform="matrix(0.05,0,0,0.05,31.950000000000003,0)" xlink:href="#aN"/><use transform="matrix(0.05,0,0,0.05,41.95,0)" xlink:href="#aI"/><use transform="matrix(0.05,0,0,0.05,45.900000000000006,0)" xlink:href="#bg"/><use transform="matrix(0.05,0,0,0.05,54.900000000000006,0)" xlink:href="#az"/><use transform="matrix(0.05,0,0,0.05,64.9,0)" xlink:href="#aC"/></g><g id="F"><use transform="matrix(0.05,0,0,0.05,0,0)" xlink:href="#aK"/><use transform="matrix(0.05,0,0,0.05,14.950000000000001,0)" xlink:href="#az"/><use transform="matrix(0.05,0,0,0.05,24.950000000000003,0)" xlink:href="#aC"/><use transform="matrix(0.05,0,0,0.05,33.95,0)" xlink:href="#aC"/><use transform="matrix(0.05,0,0,0.05,42.95,0)" xlink:href="#aP"/><use transform="matrix(0.05,0,0,0.05,52.95,0)" xlink:href="#aA"/><use transform="matrix(0.05,0,0,0.05,62.95,0)" xlink:href="#az"/><use transform="matrix(0.05,0,0,0.05,72.95,0)" xlink:href="#aC"/></g><g id="G"><use transform="matrix(0.05,0,0,0.05,0,0)" xlink:href="#aM"/><use transform="matrix(0.05,0,0,0.05,12.950000000000001,0)" xlink:href="#aN"/><use transform="matrix(0.05,0,0,0.05,22.950000000000003,0)" xlink:href="#aL"/><use transform="matrix(0.05,0,0,0.05,32.95,0)" xlink:href="#aZ"/><use transform="matrix(0.05,0,0,0.05,37.95,0)" xlink:href="#aB"/><use transform="matrix(0.05,0,0,0.05,41.900000000000006,0)" xlink:href="#aA"/><use transform="matrix(0.05,0,0,0.05,51.900000000000006,0)" xlink:href="#aQ"/><use transform="matrix(0.05,0,0,0.05,61.900000000000006,0)" xlink:href="#aE"/><use transform="matrix(0.05,0,0,0.05,67.85000000000001,0)" xlink:href="#az"/><use transform="matrix(0.05,0,0,0.05,77.85000000000001,0)" xlink:href="#aC"/></g><g id="H"><use transform="matrix(0.04938271604938272,0,0,0.04938271604938272,0,0)" xlink:href="#aK"/><use transform="matrix(0.04938271604938272,0,0,0.04938271604938272,14.765432098765434,0)" xlink:href="#aP"/><use transform="matrix(0.04938271604938272,0,0,0.04938271604938272,24.641975308641978,0)" xlink:href="#aL"/><use transform="matrix(0.04938271604938272,0,0,0.04938271604938272,34.51851851851852,0)" xlink:href="#aP"/><use transform="matrix(0.04938271604938272,0,0,0.04938271604938272,44.39506172839506,0)" xlink:href="#aA"/><use transform="matrix(0.04938271604938272,0,0,0.04938271604938272,54.27160493827161,0)" xlink:href="#az"/><use transform="matrix(0.04938271604938272,0,0,0.04938271604938272,64.14814814814815,0)" xlink:href="#aC"/></g><g id="I"><use transform="matrix(0.04938271604938272,0,0,0.04938271604938272,0,0)" xlink:href="#ay"/><use transform="matrix(0.04938271604938272,0,0,0.04938271604938272,12.790123456790125,0)" xlink:href="#az"/><use transform="matrix(0.04938271604938272,0,0,0.04938271604938272,22.66666666666667,0)" xlink:href="#aA"/><use transform="matrix(0.04938271604938272,0,0,0.04938271604938272,32.543209876543216,0)" xlink:href="#aB"/><use transform="matrix(0.04938271604938272,0,0,0.04938271604938272,36.44444444444445,0)" xlink:href="#aC"/><use transform="matrix(0.04938271604938272,0,0,0.04938271604938272,45.33333333333334,0)" xlink:href="#aD"/><use transform="matrix(0.04938271604938272,0,0,0.04938271604938272,50.271604938271615,0)" xlink:href="#aE"/><use transform="matrix(0.04938271604938272,0,0,0.04938271604938272,56.14814814814817,0)" xlink:href="#aF"/></g><g id="J"><use transform="matrix(0.04938271604938272,0,0,0.04938271604938272,0,0)" xlink:href="#aM"/><use transform="matrix(0.04938271604938272,0,0,0.04938271604938272,12.790123456790125,0)" xlink:href="#aN"/><use transform="matrix(0.04938271604938272,0,0,0.04938271604938272,22.66666666666667,0)" xlink:href="#aL"/><use transform="matrix(0.04938271604938272,0,0,0.04938271604938272,32.543209876543216,0)" xlink:href="#aD"/><use transform="matrix(0.04938271604938272,0,0,0.04938271604938272,37.48148148148149,0)" xlink:href="#aE"/><use transform="matrix(0.04938271604938272,0,0,0.04938271604938272,43.35802469135803,0)" xlink:href="#aP"/><use transform="matrix(0.04938271604938272,0,0,0.04938271604938272,53.23456790123457,0)" xlink:href="#aU"/><use transform="matrix(0.04938271604938272,0,0,0.04938271604938272,62.12345679012347,0)" xlink:href="#aD"/><use transform="matrix(0.04938271604938272,0,0,0.04938271604938272,67.06172839506175,0)" xlink:href="#aC"/></g><g id="L"><use transform="matrix(0.04938271604938272,0,0,0.04938271604938272,0,0)" xlink:href="#aT"/><use transform="matrix(0.04938271604938272,0,0,0.04938271604938272,10.814814814814815,0)" xlink:href="#aH"/><use transform="matrix(0.04938271604938272,0,0,0.04938271604938272,20.69135802469136,0)" xlink:href="#az"/><use transform="matrix(0.04938271604938272,0,0,0.04938271604938272,30.567901234567906,0)" xlink:href="#aC"/><use transform="matrix(0.04938271604938272,0,0,0.04938271604938272,39.4567901234568,0)" xlink:href="#az"/></g><g id="M"><use transform="matrix(0.04938271604938272,0,0,0.04938271604938272,0,0)" xlink:href="#aU"/><use transform="matrix(0.04938271604938272,0,0,0.04938271604938272,8.88888888888889,0)" xlink:href="#aN"/><use transform="matrix(0.04938271604938272,0,0,0.04938271604938272,18.765432098765434,0)" xlink:href="#aL"/><use transform="matrix(0.04938271604938272,0,0,0.04938271604938272,28.641975308641978,0)" xlink:href="#aD"/><use transform="matrix(0.04938271604938272,0,0,0.04938271604938272,33.580246913580254,0)" xlink:href="#aE"/><use transform="matrix(0.04938271604938272,0,0,0.04938271604938272,39.4567901234568,0)" xlink:href="#aP"/><use transform="matrix(0.04938271604938272,0,0,0.04938271604938272,49.33333333333334,0)" xlink:href="#aU"/><use transform="matrix(0.04938271604938272,0,0,0.04938271604938272,58.22222222222223,0)" xlink:href="#aD"/><use transform="matrix(0.04938271604938272,0,0,0.04938271604938272,63.1604938271605,0)" xlink:href="#aC"/></g><path fill="#333" d="M115-194c55 1 70 41 70 98S169 2 115 4C84 4 66-9 55-30l1 105H24l-1-265h31l2 30c10-21 28-34 59-34zm-8 174c40 0 45-34 45-75s-6-73-45-74c-42 0-51 32-51 76 0 43 10 73 51 73" id="bi"/><g id="N"><use transform="matrix(0.04938271604938272,0,0,0.04938271604938272,0,0)" xlink:href="#aU"/><use transform="matrix(0.04938271604938272,0,0,0.04938271604938272,8.88888888888889,0)" xlink:href="#aN"/><use transform="matrix(0.04938271604938272,0,0,0.04938271604938272,18.765432098765434,0)" xlink:href="#be"/><use transform="matrix(0.04938271604938272,0,0,0.04938271604938272,33.53086419753087,0)" xlink:href="#bi"/><use transform="matrix(0.04938271604938272,0,0,0.04938271604938272,43.40740740740741,0)" xlink:href="#aN"/><use transform="matrix(0.04938271604938272,0,0,0.04938271604938272,53.283950617283956,0)" xlink:href="#aC"/><use transform="matrix(0.04938271604938272,0,0,0.04938271604938272,62.17283950617284,0)" xlink:href="#az"/></g><g id="O"><use transform="matrix(0.04938271604938272,0,0,0.04938271604938272,0,0)" xlink:href="#aD"/><use transform="matrix(0.04938271604938272,0,0,0.04938271604938272,4.938271604938272,0)" xlink:href="#aH"/><use transform="matrix(0.04938271604938272,0,0,0.04938271604938272,14.814814814814817,0)" xlink:href="#az"/></g><path fill="#333" d="M190 0L58-211 59 0H30v-248h39L202-35l-2-213h31V0h-41" id="bj"/><g id="P"><use transform="matrix(0.04938271604938272,0,0,0.04938271604938272,0,0)" xlink:href="#aM"/><use transform="matrix(0.04938271604938272,0,0,0.04938271604938272,12.790123456790125,0)" xlink:href="#bj"/><use transform="matrix(0.04938271604938272,0,0,0.04938271604938272,25.58024691358025,0)" xlink:href="#aO"/></g><g id="Q"><use transform="matrix(0.04938271604938272,0,0,0.04938271604938272,0,0)" xlink:href="#ay"/><use transform="matrix(0.04938271604938272,0,0,0.04938271604938272,12.790123456790125,0)" xlink:href="#az"/><use transform="matrix(0.04938271604938272,0,0,0.04938271604938272,22.66666666666667,0)" xlink:href="#aA"/><use transform="matrix(0.04938271604938272,0,0,0.04938271604938272,32.543209876543216,0)" xlink:href="#aB"/><use transform="matrix(0.04938271604938272,0,0,0.04938271604938272,36.44444444444445,0)" xlink:href="#aC"/><use transform="matrix(0.04938271604938272,0,0,0.04938271604938272,45.33333333333334,0)" xlink:href="#aD"/><use transform="matrix(0.04938271604938272,0,0,0.04938271604938272,50.271604938271615,0)" xlink:href="#aE"/><use transform="matrix(0.04938271604938272,0,0,0.04938271604938272,56.14814814814817,0)" xlink:href="#aF"/></g><path fill="#333" d="M33 0v-38h34V0H33" id="bk"/><g id="R"><use transform="matrix(0.04938271604938272,0,0,0.04938271604938272,0,0)" xlink:href="#aC"/><use transform="matrix(0.04938271604938272,0,0,0.04938271604938272,8.88888888888889,0)" xlink:href="#aF"/><use transform="matrix(0.04938271604938272,0,0,0.04938271604938272,17.77777777777778,0)" xlink:href="#aC"/><use transform="matrix(0.04938271604938272,0,0,0.04938271604938272,26.666666666666668,0)" xlink:href="#aD"/><use transform="matrix(0.04938271604938272,0,0,0.04938271604938272,31.60493827160494,0)" xlink:href="#az"/><use transform="matrix(0.04938271604938272,0,0,0.04938271604938272,41.48148148148148,0)" xlink:href="#be"/><use transform="matrix(0.04938271604938272,0,0,0.04938271604938272,56.246913580246904,0)" xlink:href="#bk"/></g><g id="S"><use transform="matrix(0.04938271604938272,0,0,0.04938271604938272,0,0)" xlink:href="#bb"/><use transform="matrix(0.04938271604938272,0,0,0.04938271604938272,11.851851851851853,0)" xlink:href="#bg"/><use transform="matrix(0.04938271604938272,0,0,0.04938271604938272,20.74074074074074,0)" xlink:href="#az"/><use transform="matrix(0.04938271604938272,0,0,0.04938271604938272,30.617283950617285,0)" xlink:href="#aE"/><use transform="matrix(0.04938271604938272,0,0,0.04938271604938272,36.49382716049383,0)" xlink:href="#aF"/><use transform="matrix(0.04938271604938272,0,0,0.04938271604938272,45.38271604938272,0)" xlink:href="#aD"/><use transform="matrix(0.04938271604938272,0,0,0.04938271604938272,50.320987654320994,0)" xlink:href="#aH"/><use transform="matrix(0.04938271604938272,0,0,0.04938271604938272,60.19753086419754,0)" xlink:href="#aB"/><use transform="matrix(0.04938271604938272,0,0,0.04938271604938272,64.09876543209877,0)" xlink:href="#aL"/><use transform="matrix(0.04938271604938272,0,0,0.04938271604938272,73.97530864197532,0)" xlink:href="#aA"/></g><g id="T"><use transform="matrix(0.04938271604938272,0,0,0.04938271604938272,0,0)" xlink:href="#aN"/><use transform="matrix(0.04938271604938272,0,0,0.04938271604938272,9.876543209876544,0)" xlink:href="#aQ"/><use transform="matrix(0.04938271604938272,0,0,0.04938271604938272,19.75308641975309,0)" xlink:href="#aD"/><use transform="matrix(0.04938271604938272,0,0,0.04938271604938272,24.69135802469136,0)" xlink:href="#aC"/><use transform="matrix(0.04938271604938272,0,0,0.04938271604938272,33.580246913580254,0)" xlink:href="#aB"/><use transform="matrix(0.04938271604938272,0,0,0.04938271604938272,37.48148148148149,0)" xlink:href="#aJ"/><use transform="matrix(0.04938271604938272,0,0,0.04938271604938272,47.35802469135803,0)" xlink:href="#az"/></g><g id="U"><use transform="matrix(0.04938271604938272,0,0,0.04938271604938272,0,0)" xlink:href="#aD"/><use transform="matrix(0.04938271604938272,0,0,0.04938271604938272,4.938271604938272,0)" xlink:href="#aH"/><use transform="matrix(0.04938271604938272,0,0,0.04938271604938272,14.814814814814817,0)" xlink:href="#az"/></g><g id="V"><use transform="matrix(0.04938271604938272,0,0,0.04938271604938272,0,0)" xlink:href="#aC"/><use transform="matrix(0.04938271604938272,0,0,0.04938271604938272,8.88888888888889,0)" xlink:href="#aF"/><use transform="matrix(0.04938271604938272,0,0,0.04938271604938272,17.77777777777778,0)" xlink:href="#aC"/><use transform="matrix(0.04938271604938272,0,0,0.04938271604938272,26.666666666666668,0)" xlink:href="#aD"/><use transform="matrix(0.04938271604938272,0,0,0.04938271604938272,31.60493827160494,0)" xlink:href="#az"/><use transform="matrix(0.04938271604938272,0,0,0.04938271604938272,41.48148148148148,0)" xlink:href="#be"/></g><g id="W"><use transform="matrix(0.04938271604938272,0,0,0.04938271604938272,0,0)" xlink:href="#aB"/><use transform="matrix(0.04938271604938272,0,0,0.04938271604938272,3.901234567901235,0)" xlink:href="#aC"/></g><path fill="#333" d="M115-194c53 0 69 39 70 98 0 66-23 100-70 100C84 3 66-7 56-30L54 0H23l1-261h32v101c10-23 28-34 59-34zm-8 174c40 0 45-34 45-75 0-40-5-75-45-74-42 0-51 32-51 76 0 43 10 73 51 73" id="bl"/><g id="X"><use transform="matrix(0.04938271604938272,0,0,0.04938271604938272,0,0)" xlink:href="#bi"/><use transform="matrix(0.04938271604938272,0,0,0.04938271604938272,9.876543209876544,0)" xlink:href="#aN"/><use transform="matrix(0.04938271604938272,0,0,0.04938271604938272,19.75308641975309,0)" xlink:href="#aC"/><use transform="matrix(0.04938271604938272,0,0,0.04938271604938272,28.641975308641978,0)" xlink:href="#aC"/><use transform="matrix(0.04938271604938272,0,0,0.04938271604938272,37.53086419753087,0)" xlink:href="#aB"/><use transform="matrix(0.04938271604938272,0,0,0.04938271604938272,41.4320987654321,0)" xlink:href="#bl"/><use transform="matrix(0.04938271604938272,0,0,0.04938271604938272,51.308641975308646,0)" xlink:href="#aI"/><use transform="matrix(0.04938271604938272,0,0,0.04938271604938272,55.20987654320988,0)" xlink:href="#az"/></g><g id="Y"><use transform="matrix(0.04938271604938272,0,0,0.04938271604938272,0,0)" xlink:href="#aD"/><use transform="matrix(0.04938271604938272,0,0,0.04938271604938272,4.938271604938272,0)" xlink:href="#aN"/></g><g id="Z"><use transform="matrix(0.04938271604938272,0,0,0.04938271604938272,0,0)" xlink:href="#bl"/><use transform="matrix(0.04938271604938272,0,0,0.04938271604938272,9.876543209876544,0)" xlink:href="#az"/></g><g id="aa"><use transform="matrix(0.04938271604938272,0,0,0.04938271604938272,0,0)" xlink:href="#aU"/><use transform="matrix(0.04938271604938272,0,0,0.04938271604938272,8.88888888888889,0)" xlink:href="#aN"/><use transform="matrix(0.04938271604938272,0,0,0.04938271604938272,18.765432098765434,0)" xlink:href="#aL"/><use transform="matrix(0.04938271604938272,0,0,0.04938271604938272,28.641975308641978,0)" xlink:href="#aZ"/><use transform="matrix(0.04938271604938272,0,0,0.04938271604938272,33.580246913580254,0)" xlink:href="#aB"/><use transform="matrix(0.04938271604938272,0,0,0.04938271604938272,37.48148148148149,0)" xlink:href="#aA"/><use transform="matrix(0.04938271604938272,0,0,0.04938271604938272,47.35802469135803,0)" xlink:href="#aQ"/><use transform="matrix(0.04938271604938272,0,0,0.04938271604938272,57.23456790123457,0)" xlink:href="#aE"/><use transform="matrix(0.04938271604938272,0,0,0.04938271604938272,63.111111111111114,0)" xlink:href="#az"/><use transform="matrix(0.04938271604938272,0,0,0.04938271604938272,72.98765432098767,0)" xlink:href="#aJ"/><use transform="matrix(0.04938271604938272,0,0,0.04938271604938272,82.86419753086422,0)" xlink:href="#bk"/></g><path fill="#333" d="M24 0v-248h52v208h133V0H24" id="bm"/><path fill="#333" d="M185-48c-13 30-37 53-82 52C43 2 14-33 14-96s30-98 90-98c62 0 83 45 84 108H66c0 31 8 55 39 56 18 0 30-7 34-22zm-45-69c5-46-57-63-70-21-2 6-4 13-4 21h74" id="bn"/><path fill="#333" d="M195-6C206 82 75 100 31 46c-4-6-6-13-8-21l49-6c3 16 16 24 34 25 40 0 42-37 40-79-11 22-30 35-61 35-53 0-70-43-70-97 0-56 18-96 73-97 30 0 46 14 59 34l2-30h47zm-90-29c32 0 41-27 41-63 0-35-9-62-40-62-32 0-39 29-40 63 0 36 9 62 39 62" id="bo"/><path fill="#333" d="M135-194c87-1 58 113 63 194h-50c-7-57 23-157-34-157-59 0-34 97-39 157H25l-1-190h47c2 12-1 28 3 38 12-26 28-41 61-42" id="bp"/><path fill="#333" d="M88-194c31-1 46 15 58 34l-1-101h50l1 261h-48c-2-10 0-23-3-31C134-8 116 4 84 4 32 4 16-41 15-95c0-56 19-97 73-99zm17 164c33 0 40-30 41-66 1-37-9-64-41-64s-38 30-39 65c0 43 13 65 39 65" id="bq"/><g id="ab"><use transform="matrix(0.07469135802469135,0,0,0.07469135802469135,0,0)" xlink:href="#bm"/><use transform="matrix(0.07469135802469135,0,0,0.07469135802469135,16.357407407407404,0)" xlink:href="#bn"/><use transform="matrix(0.07469135802469135,0,0,0.07469135802469135,31.295679012345673,0)" xlink:href="#bo"/><use transform="matrix(0.07469135802469135,0,0,0.07469135802469135,47.65308641975308,0)" xlink:href="#bn"/><use transform="matrix(0.07469135802469135,0,0,0.07469135802469135,62.591358024691345,0)" xlink:href="#bp"/><use transform="matrix(0.07469135802469135,0,0,0.07469135802469135,78.94876543209875,0)" xlink:href="#bq"/></g><g id="ac"><use transform="matrix(0.05,0,0,0.05,0,0)" xlink:href="#ay"/><use transform="matrix(0.05,0,0,0.05,12.950000000000001,0)" xlink:href="#az"/><use transform="matrix(0.05,0,0,0.05,22.950000000000003,0)" xlink:href="#aA"/><use transform="matrix(0.05,0,0,0.05,32.95,0)" xlink:href="#aB"/><use transform="matrix(0.05,0,0,0.05,36.900000000000006,0)" xlink:href="#aC"/><use transform="matrix(0.05,0,0,0.05,45.900000000000006,0)" xlink:href="#aD"/><use transform="matrix(0.05,0,0,0.05,50.900000000000006,0)" xlink:href="#aE"/><use transform="matrix(0.05,0,0,0.05,56.85,0)" xlink:href="#aF"/></g><g id="ad"><use transform="matrix(0.05,0,0,0.05,0,0)" xlink:href="#aM"/><use transform="matrix(0.05,0,0,0.05,12.950000000000001,0)" xlink:href="#aN"/><use transform="matrix(0.05,0,0,0.05,22.950000000000003,0)" xlink:href="#aL"/><use transform="matrix(0.05,0,0,0.05,32.95,0)" xlink:href="#aD"/><use transform="matrix(0.05,0,0,0.05,37.95,0)" xlink:href="#aE"/><use transform="matrix(0.05,0,0,0.05,43.900000000000006,0)" xlink:href="#aN"/><use transform="matrix(0.05,0,0,0.05,53.900000000000006,0)" xlink:href="#aI"/><use transform="matrix(0.05,0,0,0.05,57.85,0)" xlink:href="#aI"/><use transform="matrix(0.05,0,0,0.05,61.80000000000001,0)" xlink:href="#az"/><use transform="matrix(0.05,0,0,0.05,71.80000000000001,0)" xlink:href="#aE"/></g><g id="ae"><use transform="matrix(0.05,0,0,0.05,0,0)" xlink:href="#aW"/><use transform="matrix(0.05,0,0,0.05,12.950000000000001,0)" xlink:href="#aL"/><use transform="matrix(0.05,0,0,0.05,22.950000000000003,0)" xlink:href="#aC"/><use transform="matrix(0.05,0,0,0.05,31.950000000000003,0)" xlink:href="#aD"/><use transform="matrix(0.05,0,0,0.05,36.95,0)" xlink:href="#aN"/><use transform="matrix(0.05,0,0,0.05,46.95,0)" xlink:href="#bi"/><use transform="matrix(0.05,0,0,0.05,56.95,0)" xlink:href="#bi"/><use transform="matrix(0.05,0,0,0.05,66.95,0)" xlink:href="#aP"/><use transform="matrix(0.05,0,0,0.05,76.95,0)" xlink:href="#bl"/><use transform="matrix(0.05,0,0,0.05,86.95,0)" xlink:href="#aI"/><use transform="matrix(0.05,0,0,0.05,90.9,0)" xlink:href="#az"/></g><g id="af"><use transform="matrix(0.05,0,0,0.05,0,0)" xlink:href="#aU"/><use transform="matrix(0.05,0,0,0.05,9,0)" xlink:href="#aN"/><use transform="matrix(0.05,0,0,0.05,19,0)" xlink:href="#aL"/><use transform="matrix(0.05,0,0,0.05,29,0)" xlink:href="#aD"/><use transform="matrix(0.05,0,0,0.05,34,0)" xlink:href="#aE"/><use transform="matrix(0.05,0,0,0.05,39.95,0)" xlink:href="#aP"/><use transform="matrix(0.05,0,0,0.05,49.95,0)" xlink:href="#aU"/><use transform="matrix(0.05,0,0,0.05,58.95,0)" xlink:href="#aD"/></g><g id="ag"><use transform="matrix(0.05,0,0,0.05,0,0)" xlink:href="#ay"/><use transform="matrix(0.05,0,0,0.05,12.950000000000001,0)" xlink:href="#az"/><use transform="matrix(0.05,0,0,0.05,22.950000000000003,0)" xlink:href="#aC"/><use transform="matrix(0.05,0,0,0.05,31.950000000000003,0)" xlink:href="#aN"/><use transform="matrix(0.05,0,0,0.05,41.95,0)" xlink:href="#aI"/><use transform="matrix(0.05,0,0,0.05,45.900000000000006,0)" xlink:href="#bg"/><use transform="matrix(0.05,0,0,0.05,54.900000000000006,0)" xlink:href="#az"/><use transform="matrix(0.05,0,0,0.05,64.9,0)" xlink:href="#aE"/></g><path fill="#333" d="M238-95c0 69-44 99-111 99C63 4 22-25 22-93v-155h51v151c-1 38 19 59 55 60 90 1 49-130 58-211h52v153" id="br"/><path fill="#333" d="M137-138c1-29-70-34-71-4 15 46 118 7 119 86 1 83-164 76-172 9l43-7c4 19 20 25 44 25 33 8 57-30 24-41C81-84 22-81 20-136c-2-80 154-74 161-7" id="bs"/><path fill="#333" d="M115-3C79 11 28 4 28-45v-112H4v-33h27l15-45h31v45h36v33H77v99c-1 23 16 31 38 25v30" id="bt"/><path fill="#333" d="M110-194c64 0 96 36 96 99 0 64-35 99-97 99-61 0-95-36-95-99 0-62 34-99 96-99zm-1 164c35 0 45-28 45-65 0-40-10-65-43-65-34 0-45 26-45 65 0 36 10 65 43 65" id="bu"/><path fill="#333" d="M135-194c53 0 70 44 70 98 0 56-19 98-73 100-31 1-45-17-59-34 3 33 2 69 2 105H25l-1-265h48c2 10 0 23 3 31 11-24 29-35 60-35zM114-30c33 0 39-31 40-66 0-38-9-64-40-64-56 0-55 130 0 130" id="bv"/><path fill="#333" d="M133-34C117-15 103 5 69 4 32 3 11-16 11-54c-1-60 55-63 116-61 1-26-3-47-28-47-18 1-26 9-28 27l-52-2c7-38 36-58 82-57s74 22 75 68l1 82c-1 14 12 18 25 15v27c-30 8-71 5-69-32zm-48 3c29 0 43-24 42-57-32 0-66-3-65 30 0 17 8 27 23 27" id="bw"/><path fill="#333" d="M135-194c52 0 70 43 70 98 0 56-19 99-73 100-30 1-46-15-58-35L72 0H24l1-261h50v104c11-23 29-37 60-37zM114-30c31 0 40-27 40-66 0-37-7-63-39-63s-41 28-41 65c0 36 8 64 40 64" id="bx"/><path fill="#333" d="M25 0v-261h50V0H25" id="by"/><g id="ah"><use transform="matrix(0.05,0,0,0.05,0,0)" xlink:href="#br"/><use transform="matrix(0.05,0,0,0.05,12.950000000000001,0)" xlink:href="#bp"/><use transform="matrix(0.05,0,0,0.05,23.900000000000002,0)" xlink:href="#bs"/><use transform="matrix(0.05,0,0,0.05,33.900000000000006,0)" xlink:href="#bt"/><use transform="matrix(0.05,0,0,0.05,39.85000000000001,0)" xlink:href="#bu"/><use transform="matrix(0.05,0,0,0.05,50.80000000000001,0)" xlink:href="#bv"/><use transform="matrix(0.05,0,0,0.05,61.750000000000014,0)" xlink:href="#bv"/><use transform="matrix(0.05,0,0,0.05,72.70000000000002,0)" xlink:href="#bw"/><use transform="matrix(0.05,0,0,0.05,82.70000000000002,0)" xlink:href="#bx"/><use transform="matrix(0.05,0,0,0.05,93.65000000000002,0)" xlink:href="#by"/><use transform="matrix(0.05,0,0,0.05,98.65000000000002,0)" xlink:href="#bn"/></g><path fill="#333" d="M199 0l-22-63H83L61 0H9l90-248h61L250 0h-51zm-33-102l-36-108c-10 38-24 72-36 108h72" id="bz"/><path fill="#333" d="M220-157c-53 9-28 100-34 157h-49v-107c1-27-5-49-29-50C55-147 81-57 75 0H25l-1-190h47c2 12-1 28 3 38 10-53 101-56 108 0 13-22 24-43 59-42 82 1 51 116 57 194h-49v-107c-1-25-5-48-29-50" id="bA"/><path fill="#333" d="M25-224v-37h50v37H25zM25 0v-190h50V0H25" id="bB"/><g id="ai"><use transform="matrix(0.05,0,0,0.05,0,0)" xlink:href="#bz"/><use transform="matrix(0.05,0,0,0.05,12.950000000000001,0)" xlink:href="#bq"/><use transform="matrix(0.05,0,0,0.05,23.900000000000002,0)" xlink:href="#bA"/><use transform="matrix(0.05,0,0,0.05,39.900000000000006,0)" xlink:href="#bB"/><use transform="matrix(0.05,0,0,0.05,44.900000000000006,0)" xlink:href="#bp"/></g><g id="aj"><use transform="matrix(0.05,0,0,0.05,0,0)" xlink:href="#bz"/><use transform="matrix(0.05,0,0,0.05,12.950000000000001,0)" xlink:href="#bs"/><use transform="matrix(0.05,0,0,0.05,22.950000000000003,0)" xlink:href="#bs"/><use transform="matrix(0.05,0,0,0.05,32.95,0)" xlink:href="#bn"/><use transform="matrix(0.05,0,0,0.05,42.95,0)" xlink:href="#bt"/><use transform="matrix(0.05,0,0,0.05,48.900000000000006,0)" xlink:href="#bs"/></g><g id="ak"><use transform="matrix(0.05,0,0,0.05,0,0)" xlink:href="#aW"/><use transform="matrix(0.05,0,0,0.05,12.950000000000001,0)" xlink:href="#aL"/><use transform="matrix(0.05,0,0,0.05,22.950000000000003,0)" xlink:href="#aC"/><use transform="matrix(0.05,0,0,0.05,31.950000000000003,0)" xlink:href="#aD"/><use transform="matrix(0.05,0,0,0.05,36.95,0)" xlink:href="#aN"/><use transform="matrix(0.05,0,0,0.05,46.95,0)" xlink:href="#bi"/><use transform="matrix(0.05,0,0,0.05,56.95,0)" xlink:href="#bi"/><use transform="matrix(0.05,0,0,0.05,66.95,0)" xlink:href="#aP"/><use transform="matrix(0.05,0,0,0.05,76.95,0)" xlink:href="#bl"/><use transform="matrix(0.05,0,0,0.05,86.95,0)" xlink:href="#aI"/><use transform="matrix(0.05,0,0,0.05,90.9,0)" xlink:href="#az"/></g><g id="al"><use transform="matrix(0.05185185185185186,0,0,0.05185185185185186,0,0)" xlink:href="#az"/><use transform="matrix(0.05185185185185186,0,0,0.05185185185185186,10.370370370370372,0)" xlink:href="#ba"/><use transform="matrix(0.05185185185185186,0,0,0.05185185185185186,19.703703703703706,0)" xlink:href="#aD"/><use transform="matrix(0.05185185185185186,0,0,0.05185185185185186,24.888888888888893,0)" xlink:href="#az"/><use transform="matrix(0.05185185185185186,0,0,0.05185185185185186,35.25925925925927,0)" xlink:href="#aE"/><use transform="matrix(0.05185185185185186,0,0,0.05185185185185186,41.42962962962964,0)" xlink:href="#aL"/><use transform="matrix(0.05185185185185186,0,0,0.05185185185185186,51.80000000000001,0)" xlink:href="#aP"/><use transform="matrix(0.05185185185185186,0,0,0.05185185185185186,62.170370370370385,0)" xlink:href="#aI"/><use transform="matrix(0.05185185185185186,0,0,0.05185185185185186,66.26666666666668,0)" xlink:href="#aI"/><use transform="matrix(0.05185185185185186,0,0,0.05185185185185186,70.36296296296298,0)" xlink:href="#aF"/></g><g id="am"><use transform="matrix(0.05185185185185186,0,0,0.05185185185185186,0,0)" xlink:href="#aN"/><use transform="matrix(0.05185185185185186,0,0,0.05185185185185186,10.370370370370372,0)" xlink:href="#bh"/><use transform="matrix(0.05185185185185186,0,0,0.05185185185185186,23.800000000000004,0)" xlink:href="#aL"/><use transform="matrix(0.05185185185185186,0,0,0.05185185185185186,34.17037037037038,0)" xlink:href="#az"/><use transform="matrix(0.05185185185185186,0,0,0.05185185185185186,44.54074074074075,0)" xlink:href="#aJ"/></g><g id="an"><use transform="matrix(0.05185185185185186,0,0,0.05185185185185186,0,0)" xlink:href="#aP"/><use transform="matrix(0.05185185185185186,0,0,0.05185185185185186,10.370370370370372,0)" xlink:href="#aU"/><use transform="matrix(0.05185185185185186,0,0,0.05185185185185186,19.703703703703706,0)" xlink:href="#aU"/><use transform="matrix(0.05185185185185186,0,0,0.05185185185185186,29.03703703703704,0)" xlink:href="#aN"/><use transform="matrix(0.05185185185185186,0,0,0.05185185185185186,39.40740740740741,0)" xlink:href="#aQ"/><use transform="matrix(0.05185185185185186,0,0,0.05185185185185186,49.777777777777786,0)" xlink:href="#aL"/><use transform="matrix(0.05185185185185186,0,0,0.05185185185185186,60.14814814814815,0)" xlink:href="#aD"/></g><g id="ao"><use transform="matrix(0.05185185185185186,0,0,0.05185185185185186,0,0)" xlink:href="#aR"/><use transform="matrix(0.05185185185185186,0,0,0.05185185185185186,6.170370370370371,0)" xlink:href="#bb"/><use transform="matrix(0.05185185185185186,0,0,0.05185185185185186,18.614814814814817,0)" xlink:href="#bc"/><use transform="matrix(0.05185185185185186,0,0,0.05185185185185186,33.13333333333334,0)" xlink:href="#bd"/><use transform="matrix(0.05185185185185186,0,0,0.05185185185185186,45.57777777777778,0)" xlink:href="#aV"/></g><g id="ap"><use transform="matrix(0.04938271604938272,0,0,0.04938271604938272,0,0)" xlink:href="#aW"/><use transform="matrix(0.04938271604938272,0,0,0.04938271604938272,12.790123456790125,0)" xlink:href="#aL"/><use transform="matrix(0.04938271604938272,0,0,0.04938271604938272,22.66666666666667,0)" xlink:href="#aC"/><use transform="matrix(0.04938271604938272,0,0,0.04938271604938272,31.555555555555557,0)" xlink:href="#aD"/><use transform="matrix(0.04938271604938272,0,0,0.04938271604938272,36.49382716049384,0)" xlink:href="#aN"/><use transform="matrix(0.04938271604938272,0,0,0.04938271604938272,46.37037037037038,0)" xlink:href="#bi"/><use transform="matrix(0.04938271604938272,0,0,0.04938271604938272,56.24691358024693,0)" xlink:href="#bi"/><use transform="matrix(0.04938271604938272,0,0,0.04938271604938272,66.12345679012347,0)" xlink:href="#aP"/><use transform="matrix(0.04938271604938272,0,0,0.04938271604938272,76.00000000000001,0)" xlink:href="#bl"/><use transform="matrix(0.04938271604938272,0,0,0.04938271604938272,85.87654320987656,0)" xlink:href="#aI"/><use transform="matrix(0.04938271604938272,0,0,0.04938271604938272,89.7777777777778,0)" xlink:href="#az"/></g><g id="aq"><use transform="matrix(0.05,0,0,0.05,0,0)" xlink:href="#ay"/><use transform="matrix(0.05,0,0,0.05,12.950000000000001,0)" xlink:href="#az"/><use transform="matrix(0.05,0,0,0.05,22.950000000000003,0)" xlink:href="#aI"/><use transform="matrix(0.05,0,0,0.05,26.900000000000002,0)" xlink:href="#aP"/><use transform="matrix(0.05,0,0,0.05,36.900000000000006,0)" xlink:href="#aF"/><use transform="matrix(0.05,0,0,0.05,45.900000000000006,0)" xlink:href="#aC"/></g><g id="ar"><use transform="matrix(0.05,0,0,0.05,0,0)" xlink:href="#aD"/><use transform="matrix(0.05,0,0,0.05,5,0)" xlink:href="#aE"/><use transform="matrix(0.05,0,0,0.05,10.95,0)" xlink:href="#aP"/><use transform="matrix(0.05,0,0,0.05,20.95,0)" xlink:href="#aL"/><use transform="matrix(0.05,0,0,0.05,30.950000000000003,0)" xlink:href="#aC"/><use transform="matrix(0.05,0,0,0.05,39.95,0)" xlink:href="#aP"/><use transform="matrix(0.05,0,0,0.05,49.95,0)" xlink:href="#aU"/><use transform="matrix(0.05,0,0,0.05,58.95,0)" xlink:href="#aD"/><use transform="matrix(0.05,0,0,0.05,63.95,0)" xlink:href="#aB"/><use transform="matrix(0.05,0,0,0.05,67.9,0)" xlink:href="#aN"/><use transform="matrix(0.05,0,0,0.05,77.9,0)" xlink:href="#aL"/><use transform="matrix(0.05,0,0,0.05,87.9,0)" xlink:href="#aC"/></g><g id="as"><use transform="matrix(0.05,0,0,0.05,0,0)" xlink:href="#aD"/><use transform="matrix(0.05,0,0,0.05,5,0)" xlink:href="#aN"/></g><path fill="#333" d="M169-182c-1-43-94-46-97-3 18 66 151 10 154 114 3 95-165 93-204 36-6-8-10-19-12-30l50-8c3 46 112 56 116 5-17-69-150-10-154-114-4-87 153-88 188-35 5 8 8 18 10 28" id="bC"/><path fill="#333" d="M135-150c-39-12-60 13-60 57V0H25l-1-190h47c2 13-1 29 3 40 6-28 27-53 61-41v41" id="bD"/><g id="at"><use transform="matrix(0.11172839506172831,0,0,0.11172839506172831,0,0)" xlink:href="#bC"/><use transform="matrix(0.11172839506172831,0,0,0.11172839506172831,26.814814814814795,0)" xlink:href="#bA"/><use transform="matrix(0.11172839506172831,0,0,0.11172839506172831,62.567901234567856,0)" xlink:href="#bw"/><use transform="matrix(0.11172839506172831,0,0,0.11172839506172831,84.91358024691351,0)" xlink:href="#bD"/><use transform="matrix(0.11172839506172831,0,0,0.11172839506172831,100.55555555555547,0)" xlink:href="#bt"/></g><path fill="#333" d="M67-125c0 53 21 87 73 88 37 1 54-22 65-47l45 17C233-25 199 4 140 4 58 4 20-42 15-125 8-235 124-281 211-232c18 10 29 29 36 50l-46 12c-8-25-30-41-62-41-52 0-71 34-72 86" id="bE"/><path fill="#333" d="M190-63c-7 42-38 67-86 67-59 0-84-38-90-98-12-110 154-137 174-36l-49 2c-2-19-15-32-35-32-30 0-35 28-38 64-6 74 65 87 74 30" id="bF"/><g id="au"><use transform="matrix(0.11172839506172831,0,0,0.11172839506172831,0,0)" xlink:href="#bE"/><use transform="matrix(0.11172839506172831,0,0,0.11172839506172831,28.937654320987633,0)" xlink:href="#bu"/><use transform="matrix(0.11172839506172831,0,0,0.11172839506172831,53.406172839506134,0)" xlink:href="#bp"/><use transform="matrix(0.11172839506172831,0,0,0.11172839506172831,77.87469135802463,0)" xlink:href="#bt"/><use transform="matrix(0.11172839506172831,0,0,0.11172839506172831,91.1703703703703,0)" xlink:href="#bD"/><use transform="matrix(0.11172839506172831,0,0,0.11172839506172831,106.81234567901227,0)" xlink:href="#bw"/><use transform="matrix(0.11172839506172831,0,0,0.11172839506172831,129.15802469135792,0)" xlink:href="#bF"/><use transform="matrix(0.11172839506172831,0,0,0.11172839506172831,151.5037037037036,0)" xlink:href="#bt"/></g><path fill="#333" d="M114-157C55-157 80-60 75 0H25v-261h50l-1 109c12-26 28-41 61-42 86-1 58 113 63 194h-50c-7-57 23-157-34-157" id="bG"/><path fill="#333" d="M85 4C-2 5 27-109 22-190h50c7 57-23 150 33 157 60-5 35-97 40-157h50l1 190h-47c-2-12 1-28-3-38-12 25-28 42-61 42" id="bH"/><g id="av"><use transform="matrix(0.11172839506172831,0,0,0.11172839506172831,0,0)" xlink:href="#bz"/><use transform="matrix(0.11172839506172831,0,0,0.11172839506172831,28.937654320987633,0)" xlink:href="#bD"/><use transform="matrix(0.11172839506172831,0,0,0.11172839506172831,44.57962962962959,0)" xlink:href="#bF"/><use transform="matrix(0.11172839506172831,0,0,0.11172839506172831,66.92530864197525,0)" xlink:href="#bG"/><use transform="matrix(0.11172839506172831,0,0,0.11172839506172831,91.39382716049374,0)" xlink:href="#bB"/><use transform="matrix(0.11172839506172831,0,0,0.11172839506172831,102.56666666666658,0)" xlink:href="#bt"/><use transform="matrix(0.11172839506172831,0,0,0.11172839506172831,115.86234567901226,0)" xlink:href="#bn"/><use transform="matrix(0.11172839506172831,0,0,0.11172839506172831,138.2080246913579,0)" xlink:href="#bF"/><use transform="matrix(0.11172839506172831,0,0,0.11172839506172831,160.55370370370358,0)" xlink:href="#bt"/><use transform="matrix(0.11172839506172831,0,0,0.11172839506172831,173.84938271604923,0)" xlink:href="#bH"/><use transform="matrix(0.11172839506172831,0,0,0.11172839506172831,198.31790123456773,0)" xlink:href="#bD"/><use transform="matrix(0.11172839506172831,0,0,0.11172839506172831,213.9598765432097,0)" xlink:href="#bn"/></g><path fill="#333" d="M168-19C124 19 11 11 16-68c3-43 29-60 59-75-25-44-12-111 53-106 37 3 64 15 64 52 0 43-40 52-69 68 12 22 27 41 43 59 14-19 21-38 28-64l37 13c-8 29-19 52-34 74 12 10 32 16 52 10v35c-28 11-65-2-81-17zm-58-139c19-9 43-14 43-39 0-14-10-22-25-22-34 0-33 41-18 61zM60-68c-3 40 55 47 79 25-18-20-34-42-48-67-18 8-30 20-31 42" id="bI"/><use transform="matrix(0.11172839506172831,0,0,0.11172839506172831,0,0)" xlink:href="#bI" id="aw"/><g id="ax"><use transform="matrix(0.11172839506172831,0,0,0.11172839506172831,0,0)" xlink:href="#bz"/><use transform="matrix(0.11172839506172831,0,0,0.11172839506172831,28.937654320987633,0)" xlink:href="#bq"/><use transform="matrix(0.11172839506172831,0,0,0.11172839506172831,53.406172839506134,0)" xlink:href="#bA"/><use transform="matrix(0.11172839506172831,0,0,0.11172839506172831,89.15925925925919,0)" xlink:href="#bB"/><use transform="matrix(0.11172839506172831,0,0,0.11172839506172831,100.33209876543202,0)" xlink:href="#bp"/><use transform="matrix(0.11172839506172831,0,0,0.11172839506172831,124.80061728395053,0)" xlink:href="#bB"/><use transform="matrix(0.11172839506172831,0,0,0.11172839506172831,135.97345679012335,0)" xlink:href="#bs"/><use transform="matrix(0.11172839506172831,0,0,0.11172839506172831,158.31913580246902,0)" xlink:href="#bt"/><use transform="matrix(0.11172839506172831,0,0,0.11172839506172831,171.61481481481468,0)" xlink:href="#bD"/><use transform="matrix(0.11172839506172831,0,0,0.11172839506172831,187.25679012345665,0)" xlink:href="#bw"/><use transform="matrix(0.11172839506172831,0,0,0.11172839506172831,209.60246913580232,0)" xlink:href="#bt"/><use transform="matrix(0.11172839506172831,0,0,0.11172839506172831,222.89814814814798,0)" xlink:href="#bB"/><use transform="matrix(0.11172839506172831,0,0,0.11172839506172831,234.07098765432082,0)" xlink:href="#bu"/><use transform="matrix(0.11172839506172831,0,0,0.11172839506172831,258.5395061728393,0)" xlink:href="#bp"/></g></defs></g></svg>