<?xml version="1.0" encoding="utf-8"?>
<!-- Generator: Adobe Illustrator 26.4.1, SVG Export Plug-In . SVG Version: 6.00 Build 0)  -->
<svg version="1.1" id="Layer_1" xmlns="http://www.w3.org/2000/svg" xmlns:xlink="http://www.w3.org/1999/xlink" x="0px" y="0px"
	 viewBox="0 0 299 94" style="enable-background:new 0 0 299 94;" xml:space="preserve">
<style type="text/css">
	.st0{fill:#00C9FF;}
	.st1{fill:#0D67FE;}
</style>
<polygon class="st0" points="81.1,19 81.1,40.8 17.5,66.6 "/>
<path class="st1" d="M69.2,18v37.7c0,11-8.9,19.9-19.9,19.9s-19.9-8.9-19.9-19.9V39.8l11.9-6.6v22.5c0,3.8,3.1,7,7,7s7-3.1,7-7V25.6
	L69.2,18z"/>
<g>
	<g>
		<path class="st1" d="M110.1,27.6v9.7c0,3.3-1.9,5-4.2,5c-1.9,0-3.4-1.1-3.4-4.1V27.6h-3.5v10.9c0,4.2,2.2,6.9,5.9,6.9
			c2.7,0,4.2-1.6,5.1-3h0.1v2.5h3.4V27.6H110.1z"/>
		<path class="st1" d="M125.2,27.1c-2.8,0-4.4,1.6-5.3,3h-0.1v-2.5h-3.4v17.3h3.5v-9.7c0-3.3,1.9-5,4.3-5c2,0,3.6,1.1,3.6,4.1v10.6
			h3.5V34C131.3,29.8,129,27.1,125.2,27.1z"/>
		<path class="st1" d="M141.6,34.5h-0.7c-3,0-3.6-0.5-3.6-1.9c0-1.4,1.2-2.5,3.4-2.5c2,0,3.1,1.1,3.3,3.1h3.6
			c-0.3-3.5-2.8-6.1-6.9-6.1c-4.7,0-7,2.8-7,5.4c0,3.1,2.6,4.9,5.8,4.9h0.9c3,0,3.9,0.7,3.9,2.4c0,1.5-1.5,2.6-3.8,2.6
			c-2,0-3.4-1.4-3.6-3.2h-3.6c0.2,3.6,3.2,6.2,7.2,6.2c4.8,0,7.4-2.8,7.4-5.6C148,36.6,145.5,34.5,141.6,34.5z"/>
		<path class="st1" d="M158.9,30.7v-3h-4.7v-2.4h-3.5l0,2.4h-2.8v3h2.8v9.7c0,3.2,1.7,4.6,4.9,4.6h3.2v-3h-2.9c-1,0-1.8-0.7-1.8-1.8
			v-9.4H158.9z M154.2,25.3L154.2,25.3"/>
		<path class="st1" d="M168.6,27.1c-4.8,0-8.7,3.3-8.7,9.2c0,5.8,3.8,9.2,8.7,9.2s8.7-3.3,8.7-9.2C177.3,30.4,173.5,27.1,168.6,27.1
			z M168.6,42.5c-2.8,0-5.1-2-5.1-6.2c0-4.2,2.3-6.2,5.1-6.2c2.8,0,5.1,1.9,5.1,6.2C173.7,40.5,171.4,42.4,168.6,42.5z"/>
		<path class="st1" d="M189,27.1c-2.4,0-4.6,1.1-5.9,3.2H183c0.1-0.7,0.1-1.2,0.1-1.8v-0.8h-3.5V48h3.5v-3.9c0-0.7,0-1.2-0.1-1.9
			h0.1c1.3,2.1,3.4,3.2,5.9,3.2c4.2,0,8-3.2,8-9.2C197,30.3,193.3,27.1,189,27.1z M188.1,42.5c-3.2,0-5.1-2.8-5.1-6.3
			c0-3.3,1.9-6,5.1-6c3.1,0,5.2,2.4,5.2,6.1C193.3,39.9,191.3,42.5,188.1,42.5z"/>
		<path class="st1" d="M208.7,27.1c-2.4,0-4.6,1.1-5.9,3.2h-0.1c0.1-0.7,0.1-1.2,0.1-1.8v-0.8h-3.5V48h3.5v-3.9c0-0.7,0-1.2-0.1-1.9
			h0.1c1.3,2.1,3.4,3.2,5.9,3.2c4.2,0,8-3.2,8-9.2C216.7,30.3,213,27.1,208.7,27.1z M207.9,42.5c-3.2,0-5.1-2.8-5.1-6.3
			c0-3.3,1.9-6,5.1-6c3.1,0,5.2,2.4,5.2,6.1C213.1,39.9,211,42.5,207.9,42.5z"/>
		<path class="st1" d="M234.5,41.9c-0.5,0-0.7-0.3-0.7-0.8v-7.6c0-3.6-1.8-6.3-7-6.3c-5,0-7.3,2.5-7.6,6.1h3.5
			c0.2-1.9,1.8-3.1,4.1-3.1c2,0,3.4,0.9,3.4,2.3c0,1.1-0.8,1.8-3.4,1.8h-1.4c-4.1,0-6.9,1.7-6.9,5.5c0,4,2.9,5.8,6.4,5.8
			c2.5,0,4.7-1.1,5.6-3.6c0.1,1.8,1.3,3,3.5,3h1.9v-3H234.5z M230.4,36.9c0,3.9-2.1,5.6-4.8,5.6c-2.4,0-3.3-1.4-3.3-2.8
			c0-1.4,0.8-2.5,3.3-2.5h0.5c2.4,0,3.9-0.8,4.2-2.3h0V36.9z"/>
		<path class="st1" d="M247.5,27.1c-2.4,0-4.6,1.1-5.9,3.2h-0.1c0.1-0.7,0.1-1.2,0.1-1.8v-6.4h-3.5v22.8h3.5v-0.8
			c0-0.7,0-1.2-0.1-1.9h0.1c1.3,2.1,3.4,3.2,5.9,3.2c4.2,0,8-3.2,8-9.2C255.4,30.3,251.7,27.1,247.5,27.1z M246.6,42.5
			c-3.2,0-5.1-2.8-5.1-6.3c0-3.3,1.9-6,5.1-6c3.1,0,5.2,2.4,5.2,6.1C251.8,39.9,249.8,42.5,246.6,42.5z"/>
		<path class="st1" d="M257.6,22.1v22.8h3.5V22.1H257.6z"/>
		<path class="st1" d="M280.6,34.7c0-4.3-3.5-7.6-8.2-7.6c-5,0-8.5,3.4-8.5,9.2c0,5.5,3.4,9.2,8.5,9.2c4.2,0,7.3-2.5,8-5.8h-3.8
			c-0.6,1.7-2.2,2.8-4.2,2.8c-2.6,0-4.5-1.9-4.9-4.9h13.1V34.7z M267.6,34.4c0.4-2.5,2.2-4.3,4.8-4.3c2.5,0,4.3,1.8,4.7,4.3H267.6z"
			/>
	</g>
	<g>
		<path class="st1" d="M112.7,48v6.3c0,0.7,0,1.2,0.1,1.9h-0.1c-1.3-2.1-3.4-3.2-5.9-3.2c-4.3,0-8,3.2-8,9c0,6,3.7,9.3,8,9.3
			c2.4,0,4.6-1.1,5.9-3.2h0.1c-0.1,0.7-0.1,1.2-0.1,1.8v0.8h3.5V48H112.7z M107.7,68.4c-3.2,0-5.3-2.5-5.3-6.3c0-3.6,2.1-6,5.3-6
			c3.2,0,5,2.6,5,6C112.7,65.5,110.9,68.3,107.7,68.4z"/>
		<path class="st1" d="M127.7,53.1c-4.8,0-8.7,3.3-8.7,9.2c0,5.8,3.8,9.2,8.7,9.2c4.8,0,8.7-3.3,8.7-9.2
			C136.4,56.3,132.6,53.1,127.7,53.1z M127.7,68.4c-2.8,0-5.1-2-5.1-6.2c0-4.2,2.3-6.2,5.1-6.2s5.1,1.9,5.1,6.2
			C132.8,66.4,130.5,68.3,127.7,68.4z"/>
		<path class="st1" d="M158.4,53.1c-2.7,0-4.3,1.4-5.4,3.1h-0.1L153,57c-0.8-2.5-2.7-3.9-5.3-3.9c-2.6,0-4.1,1.7-4.9,3.1h-0.1v-2.6
			h-3.4v17.3h3.5v-9.7c0-3.3,1.9-5,4.1-5c1.9,0,3.2,1.2,3.2,4.1v10.6h3.5v-9.8c0-3.3,1.9-4.9,4.1-4.9c1.9,0,3.1,1.2,3.1,4.1v10.6
			h3.5V59.9C164.1,55.8,161.9,53.1,158.4,53.1z"/>
		<path class="st1" d="M182.8,67.8c-0.5,0-0.7-0.3-0.7-0.8v-7.6c0-3.6-1.8-6.3-7-6.3c-5,0-7.3,2.5-7.6,6.1h3.5
			c0.2-1.9,1.8-3.1,4.1-3.1c2,0,3.4,0.9,3.4,2.3c0,1.1-0.8,1.8-3.4,1.8h-1.4c-4.1,0-6.9,1.7-6.9,5.5c0,4,2.9,5.8,6.4,5.8
			c2.5,0,4.7-1.1,5.6-3.6c0.1,1.8,1.3,3,3.5,3h1.9v-3H182.8z M178.7,62.8c0,3.9-2.1,5.6-4.8,5.6c-2.4,0-3.3-1.4-3.3-2.8
			c0-1.4,0.8-2.5,3.3-2.5h0.5c2.4,0,3.9-0.8,4.2-2.3h0V62.8z"/>
		<path class="st1" d="M186.4,53.6v17.3h3.5V53.6H186.4z"/>
		<path class="st1" d="M202.4,53.1c-2.8,0-4.4,1.6-5.3,3h-0.1v-2.5h-3.4v17.3h3.5v-9.7c0-3.3,1.9-5,4.3-5c2,0,3.6,1.1,3.6,4.1v10.6
			h3.5V59.9C208.5,55.8,206.2,53.1,202.4,53.1z"/>
		<path class="st1" d="M219.5,60.4h-0.7c-3,0-3.6-0.5-3.6-1.9c0-1.4,1.2-2.5,3.4-2.5c2,0,3.1,1.1,3.3,3.1h3.6
			c-0.3-3.5-2.8-6.1-6.9-6.1c-4.7,0-7,2.8-7,5.4c0,3.1,2.6,4.9,5.8,4.9h0.9c3,0,3.9,0.7,3.9,2.4c0,1.5-1.5,2.6-3.8,2.6
			c-2,0-3.4-1.4-3.6-3.2h-3.6c0.2,3.6,3.2,6.2,7.2,6.2c4.8,0,7.4-2.8,7.4-5.6C225.9,62.6,223.4,60.4,219.5,60.4z"/>
	</g>
</g>
</svg>
