<svg xmlns="http://www.w3.org/2000/svg" xmlns:xlink="http://www.w3.org/1999/xlink" xmlns:lucid="lucid" width="1446.52" height="958.43"><g transform="translate(-30.07420458350436 -38.1195950748006)" lucid:page-tab-id="0_0"><path d="M0 0h1760v1360H0z" fill="#fff"/><path d="M545.2 346.96c0-3.32 2.68-6 6-6h135.33c3.32 0 6 2.68 6 6v139.3c0 3.3-2.68 6-6 6H551.2c-3.32 0-6-2.7-6-6z" stroke="#5e5e5e" stroke-width="3" fill="#fff"/><use xlink:href="#a" transform="matrix(1,0,0,1,550.1971199421328,345.9560649392836) translate(28.135802469135804 17.77777777777778)"/><use xlink:href="#b" transform="matrix(1,0,0,1,550.1971199421328,345.9560649392836) translate(28.351851851851855 44.44444444444444)"/><path d="M152.26 64.12c0-3.3 2.68-6 6-6h233.76c3.3 0 6 2.7 6 6v35.34c0 3.32-2.7 6-6 6H158.26c-3.32 0-6-2.68-6-6z" fill="none"/><use xlink:href="#c" transform="matrix(1,0,0,1,157.25690939283697,63.1195950748006) translate(0.12345679012346977 25.22222222222222)"/><use xlink:href="#d" transform="matrix(1,0,0,1,157.25690939283697,63.1195950748006) translate(123.79012345679011 25.22222222222222)"/><path d="M262.47 263.4c0-3.32 2.7-6 6-6h43.97c3.3 0 6 2.68 6 6v34.23c0 3.32-2.7 6-6 6h-43.97c-3.3 0-6-2.68-6-6z" stroke="#5e5e5e" stroke-width="3" fill="#fff"/><path d="M318.44 263.4c0-3.32 2.68-6 6-6h43.96c3.3 0 6 2.68 6 6v34.23c0 3.32-2.7 6-6 6h-43.96c-3.32 0-6-2.68-6-6zM374.4 263.4c0-3.32 2.68-6 6-6h43.96c3.3 0 6 2.68 6 6v34.23c0 3.32-2.7 6-6 6H380.4c-3.32 0-6-2.68-6-6zM430.36 263.4c0-3.32 2.68-6 6-6h43.96c3.3 0 6 2.68 6 6v34.23c0 3.32-2.7 6-6 6h-43.96c-3.32 0-6-2.68-6-6zM486.32 263.4c0-3.32 2.7-6 6-6h43.96c3.3 0 6 2.68 6 6v34.23c0 3.32-2.7 6-6 6h-43.96c-3.3 0-6-2.68-6-6zM542.28 263.4c0-3.32 2.7-6 6-6h43.96c3.3 0 6 2.68 6 6v34.23c0 3.32-2.7 6-6 6h-43.96c-3.3 0-6-2.68-6-6z" stroke="#5e5e5e" stroke-width="3" fill="#fff"/><use xlink:href="#e" transform="matrix(1,0,0,1,547.2798662771664,262.3919115824224) translate(10.685185185185187 22.40277777777778)"/><path d="M362.82 233.96c0-3.3 2.7-6 6-6h105.3c3.3 0 6 2.7 6 6v24.68c0 3.3-2.7 6-6 6H368.8c-3.3 0-6-2.7-6-6z" fill="none"/><use xlink:href="#f" transform="matrix(1,0,0,1,367.81917843622506,232.96368496806713) translate(0 17.77777777777778)"/><path d="M150.36 159.95c0-3.3 2.68-6 6-6H689.4c3.32 0 6 2.7 6 6v62c0 3.33-2.68 6-6 6H156.36c-3.32 0-6-2.67-6-6z" fill="none"/><use xlink:href="#g" transform="matrix(1,0,0,1,155.35756652896333,158.95368496806714) translate(0 21.333333333333332)"/><use xlink:href="#h" transform="matrix(1,0,0,1,155.35756652896333,158.95368496806714) translate(112.37037037037035 21.333333333333332)"/><use xlink:href="#i" transform="matrix(1,0,0,1,155.35756652896333,158.95368496806714) translate(263.1111111111111 21.333333333333332)"/><use xlink:href="#j" transform="matrix(1,0,0,1,155.35756652896333,158.95368496806714) translate(295.55555555555554 21.333333333333332)"/><use xlink:href="#k" transform="matrix(1,0,0,1,155.35756652896333,158.95368496806714) translate(441.92592592592587 21.333333333333332)"/><use xlink:href="#l" transform="matrix(1,0,0,1,155.35756652896333,158.95368496806714) translate(520.2222222222222 21.333333333333332)"/><use xlink:href="#m" transform="matrix(1,0,0,1,155.35756652896333,158.95368496806714) translate(0 53.33333333333333)"/><path d="M695.03 420.03h33c3.32 0 6-2.7 6-6V286.5c0-3.3-2.68-6-6-6h-109.8" stroke="#5e5e5e" stroke-width="2" fill="none"/><path d="M695.06 421.03h-1.03v-2h1.03z" fill="#5e5e5e"/><path d="M602.98 280.5l14.26-4.62v9.27z" stroke="#5e5e5e" stroke-width="2" fill="#5e5e5e"/><path d="M150.36 342.6c0-3.3 2.68-6 6-6h148c3.3 0 6 2.7 6 6v148c0 3.32-2.7 6-6 6h-148c-3.32 0-6-2.68-6-6z" stroke="#5e5e5e" stroke-width="3" fill="#fff"/><path d="M200.82 407.93c11.76 0 21.42-9.66 21.42-21.42 0-11.9-9.66-21.4-21.42-21.4-11.76 0-21.42 9.5-21.42 21.4 0 11.77 9.66 21.43 21.42 21.43m.42 8.4c-20.44 0-37.24 17.22-39.06 39.2-.28 2.8.98 5.46 3.22 7 10.36 6.44 22.68 10.22 35.84 10.22 13.16 0 25.48-3.78 35.84-10.22 2.38-1.54 3.5-4.2 3.36-7-1.96-21.98-18.76-39.2-39.2-39.2m74.62 2.38v-11.05l10.92-6.3v-6.16h-10.92v-8.97l11.34-7.56v-11.34h-22.68v52.64c-9.94 3.5-17.08 12.88-17.08 24.08 0 14 11.48 25.48 25.62 25.48s25.62-11.48 25.62-25.48c0-13.16-10.08-23.94-22.82-25.34m-2.8 39.5c-7.84 0-14.14-6.3-14.14-14.15 0-7.84 6.3-14.28 14.14-14.28 7.84 0 14.14 6.44 14.14 14.28 0 7.84-6.3 14.14-14.14 14.14" fill="#f3f3f3"/><use xlink:href="#n" transform="matrix(1,0,0,1,155.35756652896333,341.6065668653441) translate(40.46296296296297 53.27777777777778)"/><use xlink:href="#o" transform="matrix(1,0,0,1,155.35756652896333,341.6065668653441) translate(29.969135802469125 79.94444444444446)"/><use xlink:href="#p" transform="matrix(1,0,0,1,155.35756652896333,341.6065668653441) translate(51.01851851851852 106.61111111111111)"/><path d="M569.38 407.48c0-3.3 2.7-6 6-6h86.97c3.3 0 6 2.7 6 6v61.05c0 3.32-2.7 6-6 6h-86.97c-3.3 0-6-2.68-6-6z" stroke="#5e5e5e" stroke-width="3" fill="#fff"/><path d="M607.67 434.72c4.46 0 8.12-3.66 8.12-8.12 0-4.5-3.67-8.1-8.13-8.1-4.45 0-8.1 3.6-8.1 8.1 0 4.46 3.65 8.12 8.1 8.12m.16 3.18c-7.74 0-14.1 6.53-14.8 14.86-.1 1.06.37 2.06 1.22 2.65 3.93 2.45 8.6 3.88 13.58 3.88 5 0 9.66-1.43 13.58-3.87.9-.58 1.34-1.58 1.28-2.64-.74-8.33-7.1-14.86-14.85-14.86m28.28.9v-4.2l4.14-2.37v-2.34h-4.13v-3.4l4.3-2.87v-4.3h-8.59v19.95c-3.76 1.33-6.46 4.88-6.46 9.13 0 5.3 4.35 9.66 9.7 9.66 5.36 0 9.7-4.35 9.7-9.65 0-4.98-3.8-9.07-8.63-9.6m-1.05 14.96c-2.98 0-5.36-2.38-5.36-5.35 0-2.96 2.37-5.4 5.35-5.4 2.97 0 5.35 2.44 5.35 5.4 0 2.98-2.38 5.36-5.35 5.36" fill="#f3f3f3"/><use xlink:href="#q" transform="matrix(1,0,0,1,574.3837413248657,406.4841576202482) translate(27.8641975308642 36.44444444444444)"/><path d="M350.36 342.6c0-3.3 2.68-6 6-6h148c3.3 0 6 2.7 6 6v148c0 3.32-2.7 6-6 6h-148c-3.32 0-6-2.68-6-6z" stroke="#5e5e5e" stroke-width="3" fill="#fff"/><use xlink:href="#r" transform="matrix(1,0,0,1,355.3575665289634,341.6065668653446) translate(42.345679012345684 78.71527777777777)"/><path d="M312.86 416.6h16.46c.57 0 1.04-.46 1.04-1.03v-1.04" stroke="#5e5e5e" stroke-width="2" fill="none"/><path d="M312.88 417.6h-1.02v-2h1.02z" fill="#5e5e5e"/><path d="M345.62 414.53l-14.26 4.64v-9.27z" stroke="#5e5e5e" stroke-width="2" fill="#5e5e5e"/><path d="M512.86 416.6h12.34" stroke="#5e5e5e" stroke-width="2" fill="none"/><path d="M512.88 417.6h-1.02v-2h1.02z" fill="#5e5e5e"/><path d="M540.46 416.6l-14.27 4.64v-9.27z" stroke="#5e5e5e" stroke-width="2" fill="#5e5e5e"/><path d="M945.26 159.95c0-3.3 2.7-6 6-6h323.56c3.32 0 6 2.7 6 6v30c0 3.33-2.68 6-6 6H951.26c-3.3 0-6-2.67-6-6z" fill="none"/><use xlink:href="#s" transform="matrix(1,0,0,1,950.2591287498294,158.95368496806714) translate(0 21.333333333333332)"/><use xlink:href="#t" transform="matrix(1,0,0,1,950.2591287498294,158.95368496806714) translate(90.37037037037035 21.333333333333332)"/><use xlink:href="#u" transform="matrix(1,0,0,1,950.2591287498294,158.95368496806714) translate(173.25925925925924 21.333333333333332)"/><use xlink:href="#v" transform="matrix(1,0,0,1,950.2591287498294,158.95368496806714) translate(220.59259259259255 21.333333333333332)"/><use xlink:href="#w" transform="matrix(1,0,0,1,950.2591287498294,158.95368496806714) translate(263.4074074074074 21.333333333333332)"/><path d="M940.5 233.96c0-3.3 2.68-6 6-6h148c3.3 0 6 2.7 6 6v173.42c0 3.3-2.7 6-6 6h-148c-3.32 0-6-2.7-6-6z" stroke="#5e5e5e" stroke-width="3" fill="#fff"/><use xlink:href="#r" transform="matrix(1,0,0,1,945.4946046722059,232.96368496806713) translate(42.345679012345684 17.77777777777778)"/><path d="M954.05 271.2c0-3.3 2.68-6 6-6h120.9c3.3 0 6 2.7 6 6v124.28c0 3.32-2.7 6-6 6h-120.9c-3.32 0-6-2.68-6-6z" stroke="#5e5e5e" stroke-width="3" fill="#fff"/><path d="M996.67 326.34c9.5 0 17.28-7.8 17.28-17.27 0-9.6-7.8-17.27-17.28-17.27s-17.27 7.68-17.27 17.27c0 9.48 7.8 17.27 17.27 17.27m.34 6.78c-16.47 0-30.02 13.88-31.48 31.6-.23 2.27.8 4.4 2.6 5.65 8.35 5.2 18.28 8.24 28.9 8.24 10.6 0 20.54-3.03 28.9-8.23 1.9-1.24 2.82-3.38 2.7-5.64-1.58-17.73-15.12-31.6-31.6-31.6m60.16 1.9v-8.9l8.8-5.1v-4.96h-8.8v-7.22l9.15-6.1v-9.14h-18.29v42.45c-8.02 2.83-13.77 10.4-13.77 19.42 0 11.3 9.25 20.55 20.66 20.55 11.4 0 20.66-9.26 20.66-20.55 0-10.6-8.14-19.3-18.42-20.43m-2.25 31.83c-6.33 0-11.4-5.08-11.4-11.4s5.07-11.5 11.4-11.5c6.32 0 11.4 5.18 11.4 11.5s-5.08 11.4-11.4 11.4" fill="#f3f3f3"/><use xlink:href="#n" transform="matrix(1,0,0,1,959.0484463277469,270.20338051744454) translate(26.96296296296297 41.27777777777778)"/><use xlink:href="#o" transform="matrix(1,0,0,1,959.0484463277469,270.20338051744454) translate(16.469135802469125 67.94444444444446)"/><use xlink:href="#p" transform="matrix(1,0,0,1,959.0484463277469,270.20338051744454) translate(37.51851851851852 94.61111111111111)"/><path d="M250.68 797.13c0-3.3 2.7-6 6-6h135.34c3.3 0 6 2.7 6 6v87.55c0 3.3-2.7 6-6 6H256.68c-3.3 0-6-2.7-6-6z" stroke="#5e5e5e" stroke-width="3" fill="#fff"/><use xlink:href="#e" transform="matrix(1,0,0,1,255.6837105587877,796.1336184877266) translate(56.68518518518519 48.71527777777778)"/><path d="M159.9 716.6c0-3.3 2.68-6 6-6h43.96c3.3 0 6 2.7 6 6v34.25c0 3.32-2.7 6-6 6H165.9c-3.32 0-6-2.68-6-6z" stroke="#5e5e5e" stroke-width="3" fill="#fff"/><path d="M215.86 716.6c0-3.3 2.68-6 6-6h43.96c3.3 0 6 2.7 6 6v34.25c0 3.32-2.7 6-6 6h-43.96c-3.32 0-6-2.68-6-6zM271.82 716.6c0-3.3 2.7-6 6-6h43.96c3.3 0 6 2.7 6 6v34.25c0 3.32-2.7 6-6 6h-43.96c-3.3 0-6-2.68-6-6zM327.78 716.6c0-3.3 2.7-6 6-6h43.96c3.32 0 6 2.7 6 6v34.25c0 3.32-2.68 6-6 6h-43.96c-3.3 0-6-2.68-6-6zM383.74 716.6c0-3.3 2.7-6 6-6h43.96c3.32 0 6 2.7 6 6v34.25c0 3.32-2.68 6-6 6h-43.96c-3.3 0-6-2.68-6-6zM439.7 716.6c0-3.3 2.7-6 6-6h43.96c3.32 0 6 2.7 6 6v34.25c0 3.32-2.68 6-6 6H445.7c-3.3 0-6-2.68-6-6z" stroke="#5e5e5e" stroke-width="3" fill="#fff"/><use xlink:href="#e" transform="matrix(1,0,0,1,444.70261081318966,715.6140820715184) translate(10.685185185185187 22.40277777777778)"/><path d="M263.96 685.23c0-3.3 2.68-6 6-6h105.3c3.3 0 6 2.7 6 6v24.68c0 3.32-2.7 6-6 6h-105.3c-3.32 0-6-2.68-6-6z" fill="none"/><use xlink:href="#f" transform="matrix(1,0,0,1,268.95593551675574,684.2325017804867) translate(0 17.77777777777778)"/><path d="M152.26 610.72c0-3.3 2.68-6 6-6H669c3.32 0 6 2.7 6 6v62c0 3.33-2.68 6-6 6H158.27c-3.32 0-6-2.67-6-6z" fill="none"/><use xlink:href="#x" transform="matrix(1,0,0,1,157.2569093928368,609.7230482257496) translate(0 21.333333333333332)"/><use xlink:href="#h" transform="matrix(1,0,0,1,157.2569093928368,609.7230482257496) translate(109.25925925925924 21.333333333333332)"/><use xlink:href="#y" transform="matrix(1,0,0,1,157.2569093928368,609.7230482257496) translate(260 21.333333333333332)"/><use xlink:href="#z" transform="matrix(1,0,0,1,157.2569093928368,609.7230482257496) translate(289.6296296296296 21.333333333333332)"/><use xlink:href="#A" transform="matrix(1,0,0,1,157.2569093928368,609.7230482257496) translate(353.25925925925924 21.333333333333332)"/><use xlink:href="#B" transform="matrix(1,0,0,1,157.2569093928368,609.7230482257496) translate(487.7037037037037 21.333333333333332)"/><use xlink:href="#C" transform="matrix(1,0,0,1,157.2569093928368,609.7230482257496) translate(0 53.33333333333333)"/><path d="M400.52 843.16h130.64c3.32 0 6-2.7 6-6v-97.43c0-3.3-2.68-6-6-6h-15.5" stroke="#5e5e5e" stroke-width="2" fill="none"/><path d="M400.55 844.16h-1.03v-2h1.03z" fill="#5e5e5e"/><path d="M500.4 733.73l14.27-4.63v9.27z" stroke="#5e5e5e" stroke-width="2" fill="#5e5e5e"/><path d="M945.26 611.22c0-3.3 2.7-6 6-6h495.05c3.32 0 6 2.7 6 6v62c0 3.33-2.68 6-6 6H951.27c-3.3 0-6-2.67-6-6z" fill="none"/><use xlink:href="#s" transform="matrix(1,0,0,1,950.2591287498291,610.2225017804867) translate(0 21.333333333333332)"/><use xlink:href="#D" transform="matrix(1,0,0,1,950.2591287498291,610.2225017804867) translate(90.37037037037035 21.333333333333332)"/><use xlink:href="#E" transform="matrix(1,0,0,1,950.2591287498291,610.2225017804867) translate(199.77777777777774 21.333333333333332)"/><use xlink:href="#F" transform="matrix(1,0,0,1,950.2591287498291,610.2225017804867) translate(275.33333333333326 21.333333333333332)"/><use xlink:href="#G" transform="matrix(1,0,0,1,950.2591287498291,610.2225017804867) translate(0 53.33333333333333)"/><use xlink:href="#H" transform="matrix(1,0,0,1,950.2591287498291,610.2225017804867) translate(125.70370370370368 53.33333333333333)"/><use xlink:href="#I" transform="matrix(1,0,0,1,950.2591287498291,610.2225017804867) translate(195.18518518518516 53.33333333333333)"/><path d="M954.05 797.13c0-3.3 2.68-6 6-6h148c3.3 0 6 2.7 6 6v173.42c0 3.3-2.7 6-6 6h-148c-3.32 0-6-2.7-6-6z" stroke="#5e5e5e" stroke-width="3" fill="#fff"/><use xlink:href="#r" transform="matrix(1,0,0,1,959.0484463277469,796.1336184877266) translate(42.345679012345684 17.77777777777778)"/><path d="M967.6 829.3c0-3.32 2.7-6 6-6h120.9c3.3 0 6 2.68 6 6v124.27c0 3.32-2.7 6-6 6H973.6c-3.3 0-6-2.68-6-6z" stroke="#5e5e5e" stroke-width="3" fill="#fff"/><path d="M1010.23 884.43c9.48 0 17.27-7.8 17.27-17.27 0-9.6-7.8-17.27-17.27-17.27-9.48 0-17.27 7.66-17.27 17.26 0 9.48 7.8 17.27 17.27 17.27m.34 6.78c-16.5 0-30.03 13.9-31.5 31.62-.23 2.25.8 4.4 2.6 5.64 8.35 5.2 18.28 8.24 28.9 8.24 10.6 0 20.54-3.05 28.9-8.24 1.92-1.24 2.82-3.4 2.7-5.64-1.57-17.73-15.12-31.6-31.6-31.6m60.17 1.9v-8.9l8.8-5.1v-4.96h-8.8v-7.23l9.14-6.1v-9.14h-18.29v42.44c-8.02 2.82-13.78 10.4-13.78 19.42 0 11.3 9.26 20.55 20.66 20.55s20.66-9.25 20.66-20.54c0-10.6-8.13-19.3-18.4-20.43m-2.26 31.83c-6.32 0-11.4-5.08-11.4-11.4s5.08-11.52 11.4-11.52 11.4 5.2 11.4 11.52c0 6.32-5.08 11.4-11.4 11.4" fill="#f3f3f3"/><use xlink:href="#J" transform="matrix(1,0,0,1,972.6022879832876,828.2916857787211) translate(26.96296296296297 41.27777777777778)"/><use xlink:href="#K" transform="matrix(1,0,0,1,972.6022879832876,828.2916857787211) translate(16.469135802469125 67.94444444444446)"/><use xlink:href="#p" transform="matrix(1,0,0,1,972.6022879832876,828.2916857787211) translate(37.51851851851852 94.61111111111111)"/><path d="M1169.1 814.2c0-3.32 2.7-6 6-6h135.34c3.3 0 6 2.68 6 6v139.3c0 3.3-2.7 6-6 6H1175.1c-3.3 0-6-2.7-6-6z" stroke="#5e5e5e" stroke-width="3" fill="#fff"/><g><use xlink:href="#a" transform="matrix(1,0,0,1,1174.1037282462355,813.1898431137345) translate(28.135802469135804 17.77777777777778)"/><use xlink:href="#b" transform="matrix(1,0,0,1,1174.1037282462355,813.1898431137345) translate(28.351851851851855 44.44444444444444)"/></g><path d="M967.6 712.9c0-3.3 2.7-6 6-6h43.96c3.32 0 6 2.7 6 6v34.25c0 3.3-2.68 6-6 6H973.6c-3.3 0-6-2.7-6-6z" stroke="#5e5e5e" stroke-width="3" fill="#fff"/><path d="M1023.56 712.9c0-3.3 2.7-6 6-6h43.96c3.32 0 6 2.7 6 6v34.25c0 3.3-2.68 6-6 6h-43.96c-3.3 0-6-2.7-6-6z" stroke="#5e5e5e" stroke-width="3" fill="#fff"/><path d="M1079.52 712.9c0-3.3 2.7-6 6-6h43.97c3.3 0 6 2.7 6 6v34.25c0 3.3-2.7 6-6 6h-43.98c-3.3 0-6-2.7-6-6zM1135.5 712.9c0-3.3 2.67-6 6-6h43.95c3.3 0 6 2.7 6 6v34.25c0 3.3-2.7 6-6 6h-43.96c-3.33 0-6-2.7-6-6zM1191.45 712.9c0-3.3 2.68-6 6-6h43.96c3.32 0 6 2.7 6 6v34.25c0 3.3-2.68 6-6 6h-43.95c-3.32 0-6-2.7-6-6z" stroke="#5e5e5e" stroke-width="3" fill="#fff"/><path d="M1247.4 712.9c0-3.3 2.7-6 6-6h43.97c3.3 0 6 2.7 6 6v34.25c0 3.3-2.7 6-6 6h-43.96c-3.3 0-6-2.7-6-6z" stroke="#5e5e5e" stroke-width="3" fill="#fff"/><g><use xlink:href="#e" transform="matrix(1,0,0,1,1252.4080373537963,711.9096444583608) translate(10.685185185185187 22.40277777777778)"/></g><path d="M1318.94 887.26h33c3.3 0 6-2.7 6-6V736.03c0-3.3-2.7-6-6-6h-28.57" stroke="#5e5e5e" stroke-width="2" fill="none"/><path d="M1318.97 888.26h-1.03v-2h1.03z" fill="#5e5e5e"/><path d="M1308.1 730.03l14.27-4.64v9.26z" stroke="#5e5e5e" stroke-width="2" fill="#5e5e5e"/><path d="M1193.3 874.72c0-3.32 2.68-6 6-6h86.95c3.32 0 6 2.68 6 6v61.05c0 3.3-2.68 6-6 6h-86.96c-3.32 0-6-2.7-6-6z" stroke="#5e5e5e" stroke-width="3" fill="#fff"/><path d="M1231.58 901.95c4.45 0 8.12-3.66 8.12-8.1 0-4.52-3.67-8.13-8.12-8.13-4.46 0-8.12 3.6-8.12 8.12 0 4.45 3.66 8.1 8.12 8.1m.16 3.2c-7.75 0-14.1 6.52-14.8 14.85-.1 1.05.37 2.06 1.22 2.64 3.92 2.44 8.6 3.87 13.58 3.87s9.65-1.42 13.58-3.86c.9-.58 1.32-1.6 1.27-2.65-.75-8.34-7.12-14.86-14.86-14.86m28.27.9v-4.2l4.15-2.38v-2.33H1260v-3.4l4.3-2.86v-4.3h-8.58v19.95c-3.77 1.32-6.48 4.88-6.48 9.12 0 5.3 4.35 9.65 9.7 9.65 5.37 0 9.72-4.36 9.72-9.66 0-5-3.82-9.07-8.65-9.6m-1.05 14.96c-2.97 0-5.36-2.4-5.36-5.36 0-2.97 2.38-5.4 5.35-5.4 2.97 0 5.36 2.43 5.36 5.4s-2.38 5.36-5.35 5.36" fill="#f3f3f3"/><g><use xlink:href="#q" transform="matrix(1,0,0,1,1198.2903496289684,873.7179357947009) translate(27.8641975308642 36.44444444444444)"/></g><path d="M1116.55 883.84h32.55" stroke="#5e5e5e" stroke-width="2" fill="none"/><path d="M1116.57 884.84h-1.02v-2h1.02z" fill="#5e5e5e"/><path d="M1164.37 883.84l-14.27 4.64v-9.27z" stroke="#5e5e5e" stroke-width="2" fill="#5e5e5e"/><path d="M830.43 159.95c0-3.3 2.68-6 6-6h64.67c3.32 0 6 2.7 6 6v94c0 3.33-2.68 6-6 6h-64.67c-3.32 0-6-2.67-6-6z" fill="none"/><g><use xlink:href="#L" transform="matrix(1,0,0,1,835.4268916796857,158.95368496806714) translate(0 64)"/></g><path d="M50.07 159.95c0-3.3 2.7-6 6-6h64.68c3.3 0 6 2.7 6 6v94c0 3.33-2.7 6-6 6H56.07c-3.3 0-6-2.67-6-6z" fill="none"/><g><use xlink:href="#M" transform="matrix(1,0,0,1,55.07420458350436,158.95368496806714) translate(0 64)"/></g><path d="M50.07 610.72c0-3.3 2.7-6 6-6h64.68c3.3 0 6 2.7 6 6v94c0 3.33-2.7 6-6 6H56.07c-3.3 0-6-2.67-6-6z" fill="none"/><g><use xlink:href="#N" transform="matrix(1,0,0,1,55.07420458350439,609.7230482257496) translate(0 64)"/></g><path d="M830.43 611.22c0-3.3 2.68-6 6-6h64.67c3.32 0 6 2.7 6 6v94c0 3.33-2.68 6-6 6h-64.67c-3.32 0-6-2.67-6-6z" fill="none"/><g><use xlink:href="#O" transform="matrix(1,0,0,1,835.4268916796857,610.2225017804867) translate(0 64)"/></g><path d="M1076.84 684.73c0-3.3 2.7-6 6-6h105.3c3.3 0 6 2.7 6 6v24.68c0 3.32-2.7 6-6 6h-105.3c-3.3 0-6-2.68-6-6z" fill="none"/><g><use xlink:href="#P" transform="matrix(1,0,0,1,1081.838762296951,683.7330482257496) translate(0 17.77777777777778)"/></g><defs><path fill="#333" d="M127-220V0H93v-220H8v-28h204v28h-85" id="Q"/><path fill="#333" d="M114-163C36-179 61-72 57 0H25l-1-190h30c1 12-1 29 2 39 6-27 23-49 58-41v29" id="R"/><path fill="#333" d="M141-36C126-15 110 5 73 4 37 3 15-17 15-53c-1-64 63-63 125-63 3-35-9-54-41-54-24 1-41 7-42 31l-33-3c5-37 33-52 76-52 45 0 72 20 72 64v82c-1 20 7 32 28 27v20c-31 9-61-2-59-35zM48-53c0 20 12 33 32 33 41-3 63-29 60-74-43 2-92-5-92 41" id="S"/><path fill="#333" d="M117-194c89-4 53 116 60 194h-32v-121c0-31-8-49-39-48C34-167 62-67 57 0H25l-1-190h30c1 10-1 24 2 32 11-22 29-35 61-36" id="T"/><path fill="#333" d="M135-143c-3-34-86-38-87 0 15 53 115 12 119 90S17 21 10-45l28-5c4 36 97 45 98 0-10-56-113-15-118-90-4-57 82-63 122-42 12 7 21 19 24 35" id="U"/><path fill="#333" d="M101-234c-31-9-42 10-38 44h38v23H63V0H32v-167H5v-23h27c-7-52 17-82 69-68v24" id="V"/><path fill="#333" d="M100-194c63 0 86 42 84 106H49c0 40 14 67 53 68 26 1 43-12 49-29l28 8c-11 28-37 45-77 45C44 4 14-33 15-96c1-61 26-98 85-98zm52 81c6-60-76-77-97-28-3 7-6 17-6 28h103" id="W"/><g id="a"><use transform="matrix(0.06172839506172839,0,0,0.06172839506172839,0,0)" xlink:href="#Q"/><use transform="matrix(0.06172839506172839,0,0,0.06172839506172839,12.716049382716047,0)" xlink:href="#R"/><use transform="matrix(0.06172839506172839,0,0,0.06172839506172839,20.061728395061728,0)" xlink:href="#S"/><use transform="matrix(0.06172839506172839,0,0,0.06172839506172839,32.407407407407405,0)" xlink:href="#T"/><use transform="matrix(0.06172839506172839,0,0,0.06172839506172839,44.75308641975308,0)" xlink:href="#U"/><use transform="matrix(0.06172839506172839,0,0,0.06172839506172839,55.86419753086419,0)" xlink:href="#V"/><use transform="matrix(0.06172839506172839,0,0,0.06172839506172839,62.03703703703703,0)" xlink:href="#W"/><use transform="matrix(0.06172839506172839,0,0,0.06172839506172839,74.38271604938271,0)" xlink:href="#R"/></g><path fill="#333" d="M240 0l2-218c-23 76-54 145-80 218h-23L58-218 59 0H30v-248h44l77 211c21-75 51-140 76-211h43V0h-30" id="X"/><path fill="#333" d="M59-47c-2 24 18 29 38 22v24C64 9 27 4 27-40v-127H5v-23h24l9-43h21v43h35v23H59v120" id="Y"/><path fill="#333" d="M16-82v-28h88v28H16" id="Z"/><path fill="#333" d="M141 0L90-78 38 0H4l68-98-65-92h35l48 74 47-74h35l-64 92 68 98h-35" id="aa"/><g id="b"><use transform="matrix(0.06172839506172839,0,0,0.06172839506172839,0,0)" xlink:href="#X"/><use transform="matrix(0.06172839506172839,0,0,0.06172839506172839,18.456790123456788,0)" xlink:href="#W"/><use transform="matrix(0.06172839506172839,0,0,0.06172839506172839,30.80246913580247,0)" xlink:href="#Y"/><use transform="matrix(0.06172839506172839,0,0,0.06172839506172839,36.97530864197531,0)" xlink:href="#S"/><use transform="matrix(0.06172839506172839,0,0,0.06172839506172839,49.32098765432099,0)" xlink:href="#Z"/><use transform="matrix(0.06172839506172839,0,0,0.06172839506172839,56.666666666666664,0)" xlink:href="#Q"/><use transform="matrix(0.06172839506172839,0,0,0.06172839506172839,70.18518518518518,0)" xlink:href="#aa"/></g><path fill="#333" d="M275 0h-61l-44-196L126 0H64L0-248h53L97-49l45-199h58l43 199 44-199h52" id="ab"/><path fill="#333" d="M25-224v-37h50v37H25zM25 0v-190h50V0H25" id="ac"/><path fill="#333" d="M115-3C79 11 28 4 28-45v-112H4v-33h27l15-45h31v45h36v33H77v99c-1 23 16 31 38 25v30" id="ad"/><path fill="#333" d="M114-157C55-157 80-60 75 0H25v-261h50l-1 109c12-26 28-41 61-42 86-1 58 113 63 194h-50c-7-57 23-157-34-157" id="ae"/><path fill="#333" d="M110-194c64 0 96 36 96 99 0 64-35 99-97 99-61 0-95-36-95-99 0-62 34-99 96-99zm-1 164c35 0 45-28 45-65 0-40-10-65-43-65-34 0-45 26-45 65 0 36 10 65 43 65" id="af"/><path fill="#333" d="M85 4C-2 5 27-109 22-190h50c7 57-23 150 33 157 60-5 35-97 40-157h50l1 190h-47c-2-12 1-28-3-38-12 25-28 42-61 42" id="ag"/><g id="c"><use transform="matrix(0.08641975308641973,0,0,0.08641975308641973,0,0)" xlink:href="#ab"/><use transform="matrix(0.08641975308641973,0,0,0.08641975308641973,29.03703703703703,0)" xlink:href="#ac"/><use transform="matrix(0.08641975308641973,0,0,0.08641975308641973,37.679012345679006,0)" xlink:href="#ad"/><use transform="matrix(0.08641975308641973,0,0,0.08641975308641973,47.962962962962955,0)" xlink:href="#ae"/><use transform="matrix(0.08641975308641973,0,0,0.08641975308641973,66.88888888888887,0)" xlink:href="#af"/><use transform="matrix(0.08641975308641973,0,0,0.08641975308641973,85.8148148148148,0)" xlink:href="#ag"/><use transform="matrix(0.08641975308641973,0,0,0.08641975308641973,104.74074074074072,0)" xlink:href="#ad"/></g><path fill="#333" d="M175 0L67-191c6 58 2 128 3 191H24v-248h59L193-55c-6-58-2-129-3-193h46V0h-61" id="ah"/><path fill="#333" d="M135-194c87-1 58 113 63 194h-50c-7-57 23-157-34-157-59 0-34 97-39 157H25l-1-190h47c2 12-1 28 3 38 12-26 28-41 61-42" id="ai"/><path fill="#333" d="M190-63c-7 42-38 67-86 67-59 0-84-38-90-98-12-110 154-137 174-36l-49 2c-2-19-15-32-35-32-30 0-35 28-38 64-6 74 65 87 74 30" id="aj"/><path fill="#333" d="M185-48c-13 30-37 53-82 52C43 2 14-33 14-96s30-98 90-98c62 0 83 45 84 108H66c0 31 8 55 39 56 18 0 30-7 34-22zm-45-69c5-46-57-63-70-21-2 6-4 13-4 21h74" id="ak"/><path fill="#333" d="M137-138c1-29-70-34-71-4 15 46 118 7 119 86 1 83-164 76-172 9l43-7c4 19 20 25 44 25 33 8 57-30 24-41C81-84 22-81 20-136c-2-80 154-74 161-7" id="al"/><g id="d"><use transform="matrix(0.08641975308641973,0,0,0.08641975308641973,0,0)" xlink:href="#ah"/><use transform="matrix(0.08641975308641973,0,0,0.08641975308641973,22.38271604938271,0)" xlink:href="#af"/><use transform="matrix(0.08641975308641973,0,0,0.08641975308641973,41.30864197530863,0)" xlink:href="#ai"/><use transform="matrix(0.08641975308641973,0,0,0.08641975308641973,60.234567901234556,0)" xlink:href="#aj"/><use transform="matrix(0.08641975308641973,0,0,0.08641975308641973,77.5185185185185,0)" xlink:href="#ak"/><use transform="matrix(0.08641975308641973,0,0,0.08641975308641973,94.80246913580245,0)" xlink:href="#al"/></g><g id="e"><use transform="matrix(0.06172839506172839,0,0,0.06172839506172839,0,0)" xlink:href="#Q"/><use transform="matrix(0.06172839506172839,0,0,0.06172839506172839,13.518518518518517,0)" xlink:href="#aa"/></g><path fill="#333" d="M160-131c35 5 61 23 61 61C221 17 115-2 30 0v-248c76 3 177-17 177 60 0 33-19 50-47 57zm-97-11c50-1 110 9 110-42 0-47-63-36-110-37v79zm0 115c55-2 124 14 124-45 0-56-70-42-124-44v89" id="am"/><path fill="#333" d="M24 0v-261h32V0H24" id="an"/><path fill="#333" d="M100-194c62-1 85 37 85 99 1 63-27 99-86 99S16-35 15-95c0-66 28-99 85-99zM99-20c44 1 53-31 53-75 0-43-8-75-51-75s-53 32-53 75 10 74 51 75" id="ao"/><path fill="#333" d="M96-169c-40 0-48 33-48 73s9 75 48 75c24 0 41-14 43-38l32 2c-6 37-31 61-74 61-59 0-76-41-82-99-10-93 101-131 147-64 4 7 5 14 7 22l-32 3c-4-21-16-35-41-35" id="ap"/><path fill="#333" d="M143 0L79-87 56-68V0H24v-261h32v163l83-92h37l-77 82L181 0h-38" id="aq"/><path fill="#333" d="M106-169C34-169 62-67 57 0H25v-261h32l-1 103c12-21 28-36 61-36 89 0 53 116 60 194h-32v-121c2-32-8-49-39-48" id="ar"/><path fill="#333" d="M24-231v-30h32v30H24zM24 0v-190h32V0H24" id="as"/><g id="f"><use transform="matrix(0.06172839506172839,0,0,0.06172839506172839,0,0)" xlink:href="#am"/><use transform="matrix(0.06172839506172839,0,0,0.06172839506172839,14.814814814814813,0)" xlink:href="#an"/><use transform="matrix(0.06172839506172839,0,0,0.06172839506172839,19.691358024691354,0)" xlink:href="#ao"/><use transform="matrix(0.06172839506172839,0,0,0.06172839506172839,32.03703703703703,0)" xlink:href="#ap"/><use transform="matrix(0.06172839506172839,0,0,0.06172839506172839,43.14814814814814,0)" xlink:href="#aq"/><use transform="matrix(0.06172839506172839,0,0,0.06172839506172839,54.25925925925925,0)" xlink:href="#ap"/><use transform="matrix(0.06172839506172839,0,0,0.06172839506172839,65.37037037037037,0)" xlink:href="#ar"/><use transform="matrix(0.06172839506172839,0,0,0.06172839506172839,77.71604938271605,0)" xlink:href="#S"/><use transform="matrix(0.06172839506172839,0,0,0.06172839506172839,90.06172839506173,0)" xlink:href="#as"/><use transform="matrix(0.06172839506172839,0,0,0.06172839506172839,94.93827160493828,0)" xlink:href="#T"/></g><path fill="#333" d="M169-182c-1-43-94-46-97-3 18 66 151 10 154 114 3 95-165 93-204 36-6-8-10-19-12-30l50-8c3 46 112 56 116 5-17-69-150-10-154-114-4-87 153-88 188-35 5 8 8 18 10 28" id="at"/><path fill="#333" d="M135-194c52 0 70 43 70 98 0 56-19 99-73 100-30 1-46-15-58-35L72 0H24l1-261h50v104c11-23 29-37 60-37zM114-30c31 0 40-27 40-66 0-37-7-63-39-63s-41 28-41 65c0 36 8 64 40 64" id="au"/><path fill="#333" d="M220-157c-53 9-28 100-34 157h-49v-107c1-27-5-49-29-50C55-147 81-57 75 0H25l-1-190h47c2 12-1 28 3 38 10-53 101-56 108 0 13-22 24-43 59-42 82 1 51 116 57 194h-49v-107c-1-25-5-48-29-50" id="av"/><g id="g"><use transform="matrix(0.07407407407407407,0,0,0.07407407407407407,0,0)" xlink:href="#at"/><use transform="matrix(0.07407407407407407,0,0,0.07407407407407407,17.77777777777778,0)" xlink:href="#ag"/><use transform="matrix(0.07407407407407407,0,0,0.07407407407407407,34,0)" xlink:href="#au"/><use transform="matrix(0.07407407407407407,0,0,0.07407407407407407,50.22222222222222,0)" xlink:href="#av"/><use transform="matrix(0.07407407407407407,0,0,0.07407407407407407,73.92592592592592,0)" xlink:href="#ac"/><use transform="matrix(0.07407407407407407,0,0,0.07407407407407407,81.33333333333333,0)" xlink:href="#ad"/><use transform="matrix(0.07407407407407407,0,0,0.07407407407407407,90.14814814814814,0)" xlink:href="#al"/></g><path fill="#333" d="M135-150c-39-12-60 13-60 57V0H25l-1-190h47c2 13-1 29 3 40 6-28 27-53 61-41v41" id="aw"/><path fill="#333" d="M133-34C117-15 103 5 69 4 32 3 11-16 11-54c-1-60 55-63 116-61 1-26-3-47-28-47-18 1-26 9-28 27l-52-2c7-38 36-58 82-57s74 22 75 68l1 82c-1 14 12 18 25 15v27c-30 8-71 5-69-32zm-48 3c29 0 43-24 42-57-32 0-66-3-65 30 0 17 8 27 23 27" id="ax"/><g id="h"><use transform="matrix(0.07407407407407407,0,0,0.07407407407407407,0,0)" xlink:href="#ad"/><use transform="matrix(0.07407407407407407,0,0,0.07407407407407407,8.814814814814815,0)" xlink:href="#aw"/><use transform="matrix(0.07407407407407407,0,0,0.07407407407407407,19.185185185185183,0)" xlink:href="#ax"/><use transform="matrix(0.07407407407407407,0,0,0.07407407407407407,34,0)" xlink:href="#ai"/><use transform="matrix(0.07407407407407407,0,0,0.07407407407407407,50.22222222222222,0)" xlink:href="#al"/><use transform="matrix(0.07407407407407407,0,0,0.07407407407407407,65.03703703703704,0)" xlink:href="#ax"/><use transform="matrix(0.07407407407407407,0,0,0.07407407407407407,79.85185185185185,0)" xlink:href="#aj"/><use transform="matrix(0.07407407407407407,0,0,0.07407407407407407,94.66666666666666,0)" xlink:href="#ad"/><use transform="matrix(0.07407407407407407,0,0,0.07407407407407407,103.48148148148145,0)" xlink:href="#ac"/><use transform="matrix(0.07407407407407407,0,0,0.07407407407407407,110.88888888888887,0)" xlink:href="#af"/><use transform="matrix(0.07407407407407407,0,0,0.07407407407407407,127.11111111111109,0)" xlink:href="#ai"/></g><g id="i"><use transform="matrix(0.07407407407407407,0,0,0.07407407407407407,0,0)" xlink:href="#ad"/><use transform="matrix(0.07407407407407407,0,0,0.07407407407407407,8.814814814814815,0)" xlink:href="#af"/></g><path fill="#333" d="M25 0v-261h50V0H25" id="ay"/><path fill="#333" d="M147 0L96-86 75-71V0H25v-261h50v150l67-79h53l-66 74L201 0h-54" id="az"/><g id="j"><use transform="matrix(0.07407407407407407,0,0,0.07407407407407407,0,0)" xlink:href="#au"/><use transform="matrix(0.07407407407407407,0,0,0.07407407407407407,16.22222222222222,0)" xlink:href="#ay"/><use transform="matrix(0.07407407407407407,0,0,0.07407407407407407,23.629629629629623,0)" xlink:href="#af"/><use transform="matrix(0.07407407407407407,0,0,0.07407407407407407,39.85185185185185,0)" xlink:href="#aj"/><use transform="matrix(0.07407407407407407,0,0,0.07407407407407407,54.66666666666666,0)" xlink:href="#az"/><use transform="matrix(0.07407407407407407,0,0,0.07407407407407407,69.48148148148147,0)" xlink:href="#aj"/><use transform="matrix(0.07407407407407407,0,0,0.07407407407407407,84.29629629629628,0)" xlink:href="#ae"/><use transform="matrix(0.07407407407407407,0,0,0.07407407407407407,100.51851851851852,0)" xlink:href="#ax"/><use transform="matrix(0.07407407407407407,0,0,0.07407407407407407,115.33333333333331,0)" xlink:href="#ac"/><use transform="matrix(0.07407407407407407,0,0,0.07407407407407407,122.74074074074072,0)" xlink:href="#ai"/></g><path fill="#333" d="M195-6C206 82 75 100 31 46c-4-6-6-13-8-21l49-6c3 16 16 24 34 25 40 0 42-37 40-79-11 22-30 35-61 35-53 0-70-43-70-97 0-56 18-96 73-97 30 0 46 14 59 34l2-30h47zm-90-29c32 0 41-27 41-63 0-35-9-62-40-62-32 0-39 29-40 63 0 36 9 62 39 62" id="aA"/><g id="k"><use transform="matrix(0.07407407407407407,0,0,0.07407407407407407,0,0)" xlink:href="#ag"/><use transform="matrix(0.07407407407407407,0,0,0.07407407407407407,16.22222222222222,0)" xlink:href="#al"/><use transform="matrix(0.07407407407407407,0,0,0.07407407407407407,31.037037037037035,0)" xlink:href="#ac"/><use transform="matrix(0.07407407407407407,0,0,0.07407407407407407,38.44444444444444,0)" xlink:href="#ai"/><use transform="matrix(0.07407407407407407,0,0,0.07407407407407407,54.666666666666664,0)" xlink:href="#aA"/></g><use transform="matrix(0.07407407407407407,0,0,0.07407407407407407,0,0)" xlink:href="#ax" id="l"/><path fill="#333" d="M14-72v-43h91v43H14" id="aB"/><g id="m"><use transform="matrix(0.07407407407407407,0,0,0.07407407407407407,0,0)" xlink:href="#av"/><use transform="matrix(0.07407407407407407,0,0,0.07407407407407407,23.703703703703702,0)" xlink:href="#ak"/><use transform="matrix(0.07407407407407407,0,0,0.07407407407407407,38.51851851851852,0)" xlink:href="#ad"/><use transform="matrix(0.07407407407407407,0,0,0.07407407407407407,47.333333333333336,0)" xlink:href="#ax"/><use transform="matrix(0.07407407407407407,0,0,0.07407407407407407,62.14814814814815,0)" xlink:href="#aB"/><use transform="matrix(0.07407407407407407,0,0,0.07407407407407407,70.96296296296296,0)" xlink:href="#ad"/><use transform="matrix(0.07407407407407407,0,0,0.07407407407407407,79.77777777777777,0)" xlink:href="#aw"/><use transform="matrix(0.07407407407407407,0,0,0.07407407407407407,90.14814814814814,0)" xlink:href="#ax"/><use transform="matrix(0.07407407407407407,0,0,0.07407407407407407,104.96296296296293,0)" xlink:href="#ai"/><use transform="matrix(0.07407407407407407,0,0,0.07407407407407407,121.18518518518516,0)" xlink:href="#al"/><use transform="matrix(0.07407407407407407,0,0,0.07407407407407407,135.99999999999997,0)" xlink:href="#ax"/><use transform="matrix(0.07407407407407407,0,0,0.07407407407407407,150.81481481481478,0)" xlink:href="#aj"/><use transform="matrix(0.07407407407407407,0,0,0.07407407407407407,165.6296296296296,0)" xlink:href="#ad"/><use transform="matrix(0.07407407407407407,0,0,0.07407407407407407,174.4444444444444,0)" xlink:href="#ac"/><use transform="matrix(0.07407407407407407,0,0,0.07407407407407407,181.85185185185182,0)" xlink:href="#af"/><use transform="matrix(0.07407407407407407,0,0,0.07407407407407407,198.07407407407408,0)" xlink:href="#ai"/></g><path fill="#333" d="M185-189c-5-48-123-54-124 2 14 75 158 14 163 119 3 78-121 87-175 55-17-10-28-26-33-46l33-7c5 56 141 63 141-1 0-78-155-14-162-118-5-82 145-84 179-34 5 7 8 16 11 25" id="aC"/><path fill="#333" d="M177-190C167-65 218 103 67 71c-23-6-38-20-44-43l32-5c15 47 100 32 89-28v-30C133-14 115 1 83 1 29 1 15-40 15-95c0-56 16-97 71-98 29-1 48 16 59 35 1-10 0-23 2-32h30zM94-22c36 0 50-32 50-73 0-42-14-75-50-75-39 0-46 34-46 75s6 73 46 73" id="aD"/><path fill="#333" d="M85-194c31 0 48 13 60 33l-1-100h32l1 261h-30c-2-10 0-23-3-31C134-8 116 4 85 4 32 4 16-35 15-94c0-66 23-100 70-100zm9 24c-40 0-46 34-46 75 0 40 6 74 45 74 42 0 51-32 51-76 0-42-9-74-50-73" id="aE"/><g id="n"><use transform="matrix(0.06172839506172839,0,0,0.06172839506172839,0,0)" xlink:href="#aC"/><use transform="matrix(0.06172839506172839,0,0,0.06172839506172839,14.814814814814813,0)" xlink:href="#as"/><use transform="matrix(0.06172839506172839,0,0,0.06172839506172839,19.691358024691354,0)" xlink:href="#aD"/><use transform="matrix(0.06172839506172839,0,0,0.06172839506172839,32.03703703703703,0)" xlink:href="#T"/><use transform="matrix(0.06172839506172839,0,0,0.06172839506172839,44.38271604938271,0)" xlink:href="#W"/><use transform="matrix(0.06172839506172839,0,0,0.06172839506172839,56.728395061728385,0)" xlink:href="#aE"/></g><g id="o"><use transform="matrix(0.06172839506172839,0,0,0.06172839506172839,0,0)" xlink:href="#X"/><use transform="matrix(0.06172839506172839,0,0,0.06172839506172839,18.456790123456788,0)" xlink:href="#W"/><use transform="matrix(0.06172839506172839,0,0,0.06172839506172839,30.80246913580247,0)" xlink:href="#U"/><use transform="matrix(0.06172839506172839,0,0,0.06172839506172839,41.91358024691358,0)" xlink:href="#U"/><use transform="matrix(0.06172839506172839,0,0,0.06172839506172839,53.0246913580247,0)" xlink:href="#S"/><use transform="matrix(0.06172839506172839,0,0,0.06172839506172839,65.37037037037038,0)" xlink:href="#aD"/><use transform="matrix(0.06172839506172839,0,0,0.06172839506172839,77.71604938271606,0)" xlink:href="#W"/></g><path fill="#333" d="M87 75C49 33 22-17 22-94c0-76 28-126 65-167h31c-38 41-64 92-64 168S80 34 118 75H87" id="aF"/><path fill="#333" d="M33-261c38 41 65 92 65 168S71 34 33 75H2C39 34 66-17 66-93S39-220 2-261h31" id="aG"/><g id="p"><use transform="matrix(0.06172839506172839,0,0,0.06172839506172839,0,0)" xlink:href="#aF"/><use transform="matrix(0.06172839506172839,0,0,0.06172839506172839,7.345679012345679,0)" xlink:href="#aC"/><use transform="matrix(0.06172839506172839,0,0,0.06172839506172839,22.160493827160494,0)" xlink:href="#X"/><use transform="matrix(0.06172839506172839,0,0,0.06172839506172839,40.61728395061728,0)" xlink:href="#aG"/></g><g id="q"><use transform="matrix(0.06172839506172839,0,0,0.06172839506172839,0,0)" xlink:href="#aC"/><use transform="matrix(0.06172839506172839,0,0,0.06172839506172839,14.814814814814813,0)" xlink:href="#X"/></g><path fill="#333" d="M108 0H70L1-190h34L89-25l56-165h34" id="aH"/><g id="r"><use transform="matrix(0.06172839506172839,0,0,0.06172839506172839,0,0)" xlink:href="#aC"/><use transform="matrix(0.06172839506172839,0,0,0.06172839506172839,14.814814814814813,0)" xlink:href="#W"/><use transform="matrix(0.06172839506172839,0,0,0.06172839506172839,27.160493827160494,0)" xlink:href="#R"/><use transform="matrix(0.06172839506172839,0,0,0.06172839506172839,34.50617283950617,0)" xlink:href="#aH"/><use transform="matrix(0.06172839506172839,0,0,0.06172839506172839,45.61728395061728,0)" xlink:href="#W"/><use transform="matrix(0.06172839506172839,0,0,0.06172839506172839,57.962962962962955,0)" xlink:href="#R"/></g><path fill="#333" d="M128 0H69L1-190h53L99-40l48-150h52" id="aI"/><g id="s"><use transform="matrix(0.07407407407407407,0,0,0.07407407407407407,0,0)" xlink:href="#at"/><use transform="matrix(0.07407407407407407,0,0,0.07407407407407407,17.77777777777778,0)" xlink:href="#ak"/><use transform="matrix(0.07407407407407407,0,0,0.07407407407407407,32.592592592592595,0)" xlink:href="#aw"/><use transform="matrix(0.07407407407407407,0,0,0.07407407407407407,42.96296296296296,0)" xlink:href="#aI"/><use transform="matrix(0.07407407407407407,0,0,0.07407407407407407,57.77777777777777,0)" xlink:href="#ak"/><use transform="matrix(0.07407407407407407,0,0,0.07407407407407407,72.59259259259258,0)" xlink:href="#aw"/></g><path fill="#333" d="M135-194c53 0 70 44 70 98 0 56-19 98-73 100-31 1-45-17-59-34 3 33 2 69 2 105H25l-1-265h48c2 10 0 23 3 31 11-24 29-35 60-35zM114-30c33 0 39-31 40-66 0-38-9-64-40-64-56 0-55 130 0 130" id="aJ"/><g id="t"><use transform="matrix(0.07407407407407407,0,0,0.07407407407407407,0,0)" xlink:href="#az"/><use transform="matrix(0.07407407407407407,0,0,0.07407407407407407,14.814814814814813,0)" xlink:href="#ak"/><use transform="matrix(0.07407407407407407,0,0,0.07407407407407407,29.629629629629626,0)" xlink:href="#ak"/><use transform="matrix(0.07407407407407407,0,0,0.07407407407407407,44.44444444444444,0)" xlink:href="#aJ"/><use transform="matrix(0.07407407407407407,0,0,0.07407407407407407,60.666666666666664,0)" xlink:href="#al"/></g><path fill="#333" d="M230 0l2-204L168 0h-37L68-204 70 0H24v-248h70l56 185 57-185h69V0h-46" id="aK"/><g id="u"><use transform="matrix(0.07407407407407407,0,0,0.07407407407407407,0,0)" xlink:href="#at"/><use transform="matrix(0.07407407407407407,0,0,0.07407407407407407,17.77777777777778,0)" xlink:href="#aK"/></g><path fill="#333" d="M121-226c-27-7-43 5-38 36h38v33H83V0H34v-157H6v-33h28c-9-59 32-81 87-68v32" id="aL"/><g id="v"><use transform="matrix(0.07407407407407407,0,0,0.07407407407407407,0,0)" xlink:href="#aL"/><use transform="matrix(0.07407407407407407,0,0,0.07407407407407407,8.814814814814815,0)" xlink:href="#af"/><use transform="matrix(0.07407407407407407,0,0,0.07407407407407407,25.037037037037038,0)" xlink:href="#aw"/></g><path fill="#333" d="M24 0v-54h51V0H24" id="aM"/><g id="w"><use transform="matrix(0.07407407407407407,0,0,0.07407407407407407,0,0)" xlink:href="#ay"/><use transform="matrix(0.07407407407407407,0,0,0.07407407407407407,7.4074074074074066,0)" xlink:href="#ax"/><use transform="matrix(0.07407407407407407,0,0,0.07407407407407407,22.22222222222222,0)" xlink:href="#ad"/><use transform="matrix(0.07407407407407407,0,0,0.07407407407407407,31.037037037037038,0)" xlink:href="#ak"/><use transform="matrix(0.07407407407407407,0,0,0.07407407407407407,45.85185185185185,0)" xlink:href="#aw"/><use transform="matrix(0.07407407407407407,0,0,0.07407407407407407,54.740740740740726,0)" xlink:href="#aM"/></g><path fill="#333" d="M199 0l-22-63H83L61 0H9l90-248h61L250 0h-51zm-33-102l-36-108c-10 38-24 72-36 108h72" id="aN"/><g id="x"><use transform="matrix(0.07407407407407407,0,0,0.07407407407407407,0,0)" xlink:href="#aN"/><use transform="matrix(0.07407407407407407,0,0,0.07407407407407407,19.185185185185183,0)" xlink:href="#ai"/><use transform="matrix(0.07407407407407407,0,0,0.07407407407407407,35.407407407407405,0)" xlink:href="#af"/><use transform="matrix(0.07407407407407407,0,0,0.07407407407407407,51.629629629629626,0)" xlink:href="#ad"/><use transform="matrix(0.07407407407407407,0,0,0.07407407407407407,60.44444444444444,0)" xlink:href="#ae"/><use transform="matrix(0.07407407407407407,0,0,0.07407407407407407,76.66666666666666,0)" xlink:href="#ak"/><use transform="matrix(0.07407407407407407,0,0,0.07407407407407407,91.48148148148145,0)" xlink:href="#aw"/></g><g id="y"><use transform="matrix(0.07407407407407407,0,0,0.07407407407407407,0,0)" xlink:href="#ac"/><use transform="matrix(0.07407407407407407,0,0,0.07407407407407407,7.4074074074074066,0)" xlink:href="#al"/></g><g id="z"><use transform="matrix(0.07407407407407407,0,0,0.07407407407407407,0,0)" xlink:href="#ay"/><use transform="matrix(0.07407407407407407,0,0,0.07407407407407407,7.4074074074074066,0)" xlink:href="#ax"/><use transform="matrix(0.07407407407407407,0,0,0.07407407407407407,22.22222222222222,0)" xlink:href="#ad"/><use transform="matrix(0.07407407407407407,0,0,0.07407407407407407,31.037037037037038,0)" xlink:href="#ak"/><use transform="matrix(0.07407407407407407,0,0,0.07407407407407407,45.85185185185185,0)" xlink:href="#aw"/></g><path fill="#333" d="M88-194c31-1 46 15 58 34l-1-101h50l1 261h-48c-2-10 0-23-3-31C134-8 116 4 84 4 32 4 16-41 15-95c0-56 19-97 73-99zm17 164c33 0 40-30 41-66 1-37-9-64-41-64s-38 30-39 65c0 43 13 65 39 65" id="aO"/><g id="A"><use transform="matrix(0.07407407407407407,0,0,0.07407407407407407,0,0)" xlink:href="#al"/><use transform="matrix(0.07407407407407407,0,0,0.07407407407407407,14.814814814814813,0)" xlink:href="#ag"/><use transform="matrix(0.07407407407407407,0,0,0.07407407407407407,31.037037037037035,0)" xlink:href="#au"/><use transform="matrix(0.07407407407407407,0,0,0.07407407407407407,47.259259259259245,0)" xlink:href="#av"/><use transform="matrix(0.07407407407407407,0,0,0.07407407407407407,70.96296296296296,0)" xlink:href="#ac"/><use transform="matrix(0.07407407407407407,0,0,0.07407407407407407,78.37037037037037,0)" xlink:href="#ad"/><use transform="matrix(0.07407407407407407,0,0,0.07407407407407407,87.18518518518518,0)" xlink:href="#ad"/><use transform="matrix(0.07407407407407407,0,0,0.07407407407407407,95.99999999999997,0)" xlink:href="#ak"/><use transform="matrix(0.07407407407407407,0,0,0.07407407407407407,110.8148148148148,0)" xlink:href="#aO"/></g><g id="B"><use transform="matrix(0.07407407407407407,0,0,0.07407407407407407,0,0)" xlink:href="#ad"/><use transform="matrix(0.07407407407407407,0,0,0.07407407407407407,8.814814814814815,0)" xlink:href="#af"/></g><g id="C"><use transform="matrix(0.07407407407407407,0,0,0.07407407407407407,0,0)" xlink:href="#au"/><use transform="matrix(0.07407407407407407,0,0,0.07407407407407407,16.22222222222222,0)" xlink:href="#ay"/><use transform="matrix(0.07407407407407407,0,0,0.07407407407407407,23.629629629629623,0)" xlink:href="#af"/><use transform="matrix(0.07407407407407407,0,0,0.07407407407407407,39.85185185185185,0)" xlink:href="#aj"/><use transform="matrix(0.07407407407407407,0,0,0.07407407407407407,54.66666666666666,0)" xlink:href="#az"/><use transform="matrix(0.07407407407407407,0,0,0.07407407407407407,69.48148148148147,0)" xlink:href="#aj"/><use transform="matrix(0.07407407407407407,0,0,0.07407407407407407,84.29629629629628,0)" xlink:href="#ae"/><use transform="matrix(0.07407407407407407,0,0,0.07407407407407407,100.51851851851852,0)" xlink:href="#ax"/><use transform="matrix(0.07407407407407407,0,0,0.07407407407407407,115.33333333333331,0)" xlink:href="#ac"/><use transform="matrix(0.07407407407407407,0,0,0.07407407407407407,122.74074074074072,0)" xlink:href="#ai"/><use transform="matrix(0.07407407407407407,0,0,0.07407407407407407,138.96296296296293,0)" xlink:href="#aM"/></g><g id="D"><use transform="matrix(0.07407407407407407,0,0,0.07407407407407407,0,0)" xlink:href="#al"/><use transform="matrix(0.07407407407407407,0,0,0.07407407407407407,14.814814814814813,0)" xlink:href="#ag"/><use transform="matrix(0.07407407407407407,0,0,0.07407407407407407,31.037037037037035,0)" xlink:href="#au"/><use transform="matrix(0.07407407407407407,0,0,0.07407407407407407,47.259259259259245,0)" xlink:href="#av"/><use transform="matrix(0.07407407407407407,0,0,0.07407407407407407,70.96296296296296,0)" xlink:href="#ac"/><use transform="matrix(0.07407407407407407,0,0,0.07407407407407407,78.37037037037037,0)" xlink:href="#ad"/><use transform="matrix(0.07407407407407407,0,0,0.07407407407407407,87.18518518518518,0)" xlink:href="#al"/></g><g id="E"><use transform="matrix(0.07407407407407407,0,0,0.07407407407407407,0,0)" xlink:href="#al"/><use transform="matrix(0.07407407407407407,0,0,0.07407407407407407,14.814814814814813,0)" xlink:href="#ax"/><use transform="matrix(0.07407407407407407,0,0,0.07407407407407407,29.629629629629626,0)" xlink:href="#av"/><use transform="matrix(0.07407407407407407,0,0,0.07407407407407407,53.33333333333333,0)" xlink:href="#ak"/></g><path fill="#333" d="M76-54c-1 42 2 86-19 110H24C36 42 46 24 48 0H25v-54h51" id="aP"/><g id="F"><use transform="matrix(0.07407407407407407,0,0,0.07407407407407407,0,0)" xlink:href="#av"/><use transform="matrix(0.07407407407407407,0,0,0.07407407407407407,23.703703703703702,0)" xlink:href="#ak"/><use transform="matrix(0.07407407407407407,0,0,0.07407407407407407,38.51851851851852,0)" xlink:href="#ad"/><use transform="matrix(0.07407407407407407,0,0,0.07407407407407407,47.333333333333336,0)" xlink:href="#ax"/><use transform="matrix(0.07407407407407407,0,0,0.07407407407407407,62.14814814814815,0)" xlink:href="#aB"/><use transform="matrix(0.07407407407407407,0,0,0.07407407407407407,70.96296296296296,0)" xlink:href="#ad"/><use transform="matrix(0.07407407407407407,0,0,0.07407407407407407,79.77777777777777,0)" xlink:href="#aw"/><use transform="matrix(0.07407407407407407,0,0,0.07407407407407407,90.14814814814814,0)" xlink:href="#ax"/><use transform="matrix(0.07407407407407407,0,0,0.07407407407407407,104.96296296296293,0)" xlink:href="#ai"/><use transform="matrix(0.07407407407407407,0,0,0.07407407407407407,121.18518518518516,0)" xlink:href="#al"/><use transform="matrix(0.07407407407407407,0,0,0.07407407407407407,135.99999999999997,0)" xlink:href="#ax"/><use transform="matrix(0.07407407407407407,0,0,0.07407407407407407,150.81481481481478,0)" xlink:href="#aj"/><use transform="matrix(0.07407407407407407,0,0,0.07407407407407407,165.6296296296296,0)" xlink:href="#ad"/><use transform="matrix(0.07407407407407407,0,0,0.07407407407407407,174.4444444444444,0)" xlink:href="#ac"/><use transform="matrix(0.07407407407407407,0,0,0.07407407407407407,181.85185185185182,0)" xlink:href="#af"/><use transform="matrix(0.07407407407407407,0,0,0.07407407407407407,198.07407407407408,0)" xlink:href="#ai"/><use transform="matrix(0.07407407407407407,0,0,0.07407407407407407,214.29629629629628,0)" xlink:href="#aP"/></g><path fill="#333" d="M123 10C108 53 80 86 19 72V37c35 8 53-11 59-39L3-190h52l48 148c12-52 28-100 44-148h51" id="aQ"/><g id="G"><use transform="matrix(0.07407407407407407,0,0,0.07407407407407407,0,0)" xlink:href="#aw"/><use transform="matrix(0.07407407407407407,0,0,0.07407407407407407,10.37037037037037,0)" xlink:href="#ak"/><use transform="matrix(0.07407407407407407,0,0,0.07407407407407407,25.185185185185183,0)" xlink:href="#aJ"/><use transform="matrix(0.07407407407407407,0,0,0.07407407407407407,41.407407407407405,0)" xlink:href="#ay"/><use transform="matrix(0.07407407407407407,0,0,0.07407407407407407,48.81481481481481,0)" xlink:href="#ax"/><use transform="matrix(0.07407407407407407,0,0,0.07407407407407407,63.62962962962962,0)" xlink:href="#aQ"/><use transform="matrix(0.07407407407407407,0,0,0.07407407407407407,78.44444444444443,0)" xlink:href="#ac"/><use transform="matrix(0.07407407407407407,0,0,0.07407407407407407,85.85185185185183,0)" xlink:href="#ai"/><use transform="matrix(0.07407407407407407,0,0,0.07407407407407407,102.07407407407405,0)" xlink:href="#aA"/></g><g id="H"><use transform="matrix(0.07407407407407407,0,0,0.07407407407407407,0,0)" xlink:href="#al"/><use transform="matrix(0.07407407407407407,0,0,0.07407407407407407,14.814814814814813,0)" xlink:href="#ad"/><use transform="matrix(0.07407407407407407,0,0,0.07407407407407407,23.629629629629623,0)" xlink:href="#ax"/><use transform="matrix(0.07407407407407407,0,0,0.07407407407407407,38.44444444444444,0)" xlink:href="#ad"/><use transform="matrix(0.07407407407407407,0,0,0.07407407407407407,47.25925925925926,0)" xlink:href="#ak"/></g><g id="I"><use transform="matrix(0.07407407407407407,0,0,0.07407407407407407,0,0)" xlink:href="#aj"/><use transform="matrix(0.07407407407407407,0,0,0.07407407407407407,14.814814814814813,0)" xlink:href="#ae"/><use transform="matrix(0.07407407407407407,0,0,0.07407407407407407,31.037037037037035,0)" xlink:href="#ax"/><use transform="matrix(0.07407407407407407,0,0,0.07407407407407407,45.85185185185185,0)" xlink:href="#ai"/><use transform="matrix(0.07407407407407407,0,0,0.07407407407407407,62.07407407407407,0)" xlink:href="#aA"/><use transform="matrix(0.07407407407407407,0,0,0.07407407407407407,78.29629629629629,0)" xlink:href="#ak"/><use transform="matrix(0.07407407407407407,0,0,0.07407407407407407,93.1111111111111,0)" xlink:href="#al"/><use transform="matrix(0.07407407407407407,0,0,0.07407407407407407,107.92592592592591,0)" xlink:href="#aM"/></g><g id="J"><use transform="matrix(0.06172839506172839,0,0,0.06172839506172839,0,0)" xlink:href="#aC"/><use transform="matrix(0.06172839506172839,0,0,0.06172839506172839,14.814814814814813,0)" xlink:href="#as"/><use transform="matrix(0.06172839506172839,0,0,0.06172839506172839,19.691358024691354,0)" xlink:href="#aD"/><use transform="matrix(0.06172839506172839,0,0,0.06172839506172839,32.03703703703703,0)" xlink:href="#T"/><use transform="matrix(0.06172839506172839,0,0,0.06172839506172839,44.38271604938271,0)" xlink:href="#W"/><use transform="matrix(0.06172839506172839,0,0,0.06172839506172839,56.728395061728385,0)" xlink:href="#aE"/></g><g id="K"><use transform="matrix(0.06172839506172839,0,0,0.06172839506172839,0,0)" xlink:href="#X"/><use transform="matrix(0.06172839506172839,0,0,0.06172839506172839,18.456790123456788,0)" xlink:href="#W"/><use transform="matrix(0.06172839506172839,0,0,0.06172839506172839,30.80246913580247,0)" xlink:href="#U"/><use transform="matrix(0.06172839506172839,0,0,0.06172839506172839,41.91358024691358,0)" xlink:href="#U"/><use transform="matrix(0.06172839506172839,0,0,0.06172839506172839,53.0246913580247,0)" xlink:href="#S"/><use transform="matrix(0.06172839506172839,0,0,0.06172839506172839,65.37037037037038,0)" xlink:href="#aD"/><use transform="matrix(0.06172839506172839,0,0,0.06172839506172839,77.71604938271606,0)" xlink:href="#W"/></g><path fill="#333" d="M101-251c82-7 93 87 43 132L82-64C71-53 59-42 53-27h129V0H18c2-99 128-94 128-182 0-28-16-43-45-43s-46 15-49 41l-32-3c6-41 34-60 81-64" id="aR"/><path fill="#333" d="M33 0v-38h34V0H33" id="aS"/><g id="L"><use transform="matrix(0.2222222222222222,0,0,0.2222222222222222,0,0)" xlink:href="#aR"/><use transform="matrix(0.2222222222222222,0,0,0.2222222222222222,44.44444444444444,0)" xlink:href="#aS"/></g><path fill="#333" d="M27 0v-27h64v-190l-56 39v-29l58-41h29v221h61V0H27" id="aT"/><g id="M"><use transform="matrix(0.2222222222222222,0,0,0.2222222222222222,0,0)" xlink:href="#aT"/><use transform="matrix(0.2222222222222222,0,0,0.2222222222222222,44.44444444444444,0)" xlink:href="#aS"/></g><path fill="#333" d="M126-127c33 6 58 20 58 59 0 88-139 92-164 29-3-8-5-16-6-25l32-3c6 27 21 44 54 44 32 0 52-15 52-46 0-38-36-46-79-43v-28c39 1 72-4 72-42 0-27-17-43-46-43-28 0-47 15-49 41l-32-3c6-42 35-63 81-64 48-1 79 21 79 65 0 36-21 52-52 59" id="aU"/><g id="N"><use transform="matrix(0.2222222222222222,0,0,0.2222222222222222,0,0)" xlink:href="#aU"/><use transform="matrix(0.2222222222222222,0,0,0.2222222222222222,44.44444444444444,0)" xlink:href="#aS"/></g><path fill="#333" d="M155-56V0h-30v-56H8v-25l114-167h33v167h35v25h-35zm-30-156c-27 46-58 90-88 131h88v-131" id="aV"/><g id="O"><use transform="matrix(0.2222222222222222,0,0,0.2222222222222222,0,0)" xlink:href="#aV"/><use transform="matrix(0.2222222222222222,0,0,0.2222222222222222,44.44444444444444,0)" xlink:href="#aS"/></g><g id="P"><use transform="matrix(0.06172839506172839,0,0,0.06172839506172839,0,0)" xlink:href="#am"/><use transform="matrix(0.06172839506172839,0,0,0.06172839506172839,14.814814814814813,0)" xlink:href="#an"/><use transform="matrix(0.06172839506172839,0,0,0.06172839506172839,19.691358024691354,0)" xlink:href="#ao"/><use transform="matrix(0.06172839506172839,0,0,0.06172839506172839,32.03703703703703,0)" xlink:href="#ap"/><use transform="matrix(0.06172839506172839,0,0,0.06172839506172839,43.14814814814814,0)" xlink:href="#aq"/><use transform="matrix(0.06172839506172839,0,0,0.06172839506172839,54.25925925925925,0)" xlink:href="#ap"/><use transform="matrix(0.06172839506172839,0,0,0.06172839506172839,65.37037037037037,0)" xlink:href="#ar"/><use transform="matrix(0.06172839506172839,0,0,0.06172839506172839,77.71604938271605,0)" xlink:href="#S"/><use transform="matrix(0.06172839506172839,0,0,0.06172839506172839,90.06172839506173,0)" xlink:href="#as"/><use transform="matrix(0.06172839506172839,0,0,0.06172839506172839,94.93827160493828,0)" xlink:href="#T"/></g></defs></g></svg>